<?xml version="1.0" encoding="UTF-8" standalone="no"?>
<!-- Created with Inkscape (http://www.inkscape.org/) -->

<svg
   xmlns:dc="http://purl.org/dc/elements/1.1/"
   xmlns:cc="http://creativecommons.org/ns#"
   xmlns:rdf="http://www.w3.org/1999/02/22-rdf-syntax-ns#"
   xmlns:svg="http://www.w3.org/2000/svg"
   xmlns="http://www.w3.org/2000/svg"
   xmlns:sodipodi="http://sodipodi.sourceforge.net/DTD/sodipodi-0.dtd"
   xmlns:inkscape="http://www.inkscape.org/namespaces/inkscape"
   id="svg2"
   version="1.1"
   inkscape:version="0.48.2 r9819"
   width="1246"
   height="948"
   sodipodi:docname="logo.svg">
  <metadata
     id="metadata8">
    <rdf:RDF>
      <cc:Work
         rdf:about="">
        <dc:format>image/svg+xml</dc:format>
        <dc:type
           rdf:resource="http://purl.org/dc/dcmitype/StillImage" />
        <dc:title></dc:title>
      </cc:Work>
    </rdf:RDF>
  </metadata>
  <defs
     id="defs6" />
  <sodipodi:namedview
     pagecolor="#ffffff"
     bordercolor="#666666"
     borderopacity="1"
     objecttolerance="10"
     gridtolerance="10"
     guidetolerance="10"
     inkscape:pageopacity="0"
     inkscape:pageshadow="2"
     inkscape:window-width="1280"
     inkscape:window-height="1002"
     id="namedview4"
     showgrid="false"
     inkscape:zoom="0.46869984"
     inkscape:cx="804.97877"
     inkscape:cy="658.1669"
     inkscape:window-x="-8"
     inkscape:window-y="-8"
     inkscape:window-maximized="1"
     inkscape:current-layer="svg2" />
  <path
     style="fill:#000000"
     d="M 131.04852,942.73448 C -21.134288,866.08403 -48.777379,621.6265 91.075841,519.53842 172.03025,459.27579 289.36746,474.66104 365.09399,536.12175 c 84.7091,52.43231 180.74306,118.67437 285.62216,91.34152 90.72427,-22.06271 153.97786,-141.57924 94.80835,-222.23614 -27.05976,-56.64144 -122.34452,-94.51475 -112.19028,-156.92398 44.56211,-45.44051 115.48521,-0.44225 140.14146,45.82856 61.40468,86.68588 79.01453,215.09986 9.0882,302.26234 -82.22167,115.35197 -252.32571,158.14562 -376.39319,86.0209 -56.66464,-31.17346 -104.01147,-85.90619 -173.2344,-87.05616 -52.39073,-4.23348 -115.62831,9.38049 -145.548991,55.9864 -33.83734,75.24626 40.550391,130.80196 74.518391,187.13688 14.11683,33.3715 21.50498,102.38324 -30.85717,104.25241 z m 955.49998,0.7365 C 953.2818,931.46148 855.81523,778.188 906.11252,652.85195 936.48418,520.7391 956.58208,372.62618 890.71119,247.65826 831.05582,154.73528 714.76703,101.75181 605.61022,111.67567 534.24565,119.75341 452.8146,164.40436 441.71961,241.3292 c 3.09762,74.85252 90.69736,84.4365 135.47671,125.79691 49.0733,26.63197 58.53181,130.05373 -17.408,103.47216 -73.99665,-9.94196 -143.0113,-60.0889 -163.0678,-134.00903 C 368.06712,221.91352 432.30143,97.112994 531.50939,37.733036 603.52573,-8.9942587 696.93264,-9.2787013 773.48471,26.542868 890.68182,72.549798 991.44127,178.86826 999.6586,308.9121 c 17.7117,151.6072 -40.64283,303.35459 -8.76515,454.05025 10.19645,52.75876 56.43495,116.08156 116.84935,95.67029 37.5014,-15.60816 129.2623,-66.97246 133.7597,3.41585 -15.8299,67.95029 -94.8899,85.42094 -154.954,81.42249 z"
     id="path2987"
     inkscape:connector-curvature="0" />
</svg>
