<?xml version="1.0" encoding="UTF-8" standalone="no"?>
<!-- Created with Inkscape (http://www.inkscape.org/) -->

<svg
   xmlns:dc="http://purl.org/dc/elements/1.1/"
   xmlns:cc="http://creativecommons.org/ns#"
   xmlns:rdf="http://www.w3.org/1999/02/22-rdf-syntax-ns#"
   xmlns:svg="http://www.w3.org/2000/svg"
   xmlns="http://www.w3.org/2000/svg"
   xmlns:sodipodi="http://sodipodi.sourceforge.net/DTD/sodipodi-0.dtd"
   xmlns:inkscape="http://www.inkscape.org/namespaces/inkscape"
   id="svg2"
   version="1.1"
   inkscape:version="0.48.2 r9819"
   width="1500"
   height="1500"
   sodipodi:docname="logo.svg"
   inkscape:export-filename="D:\GitHub\kapilar\static\img\logo_lg_2.png"
   inkscape:export-xdpi="49.98"
   inkscape:export-ydpi="49.98">
  <metadata
     id="metadata8">
    <rdf:RDF>
      <cc:Work
         rdf:about="">
        <dc:format>image/svg+xml</dc:format>
        <dc:type
           rdf:resource="http://purl.org/dc/dcmitype/StillImage" />
        <dc:title></dc:title>
      </cc:Work>
    </rdf:RDF>
  </metadata>
  <defs
     id="defs6" />
  <sodipodi:namedview
     pagecolor="#ffffff"
     bordercolor="#666666"
     borderopacity="1"
     objecttolerance="10"
     gridtolerance="10"
     guidetolerance="10"
     inkscape:pageopacity="0"
     inkscape:pageshadow="2"
     inkscape:window-width="1920"
     inkscape:window-height="1018"
     id="namedview4"
     showgrid="false"
     inkscape:zoom="0.5"
     inkscape:cx="95.44011"
     inkscape:cy="735.31316"
     inkscape:window-x="1272"
     inkscape:window-y="-8"
     inkscape:window-maximized="1"
     inkscape:current-layer="svg2"
     fit-margin-top="1.4" />
  <path
     style="fill:#217f26;fill-opacity:1"
     d="M 260.25269,1220.2144 C 108.06988,1143.5639 80.426794,899.1064 220.28001,797.0183 c 80.95441,-60.2626 198.29162,-44.8774 274.01815,16.5834 84.7091,52.4323 180.74306,118.6743 285.62216,91.3415 90.72427,-22.0627 153.97786,-141.5793 94.80835,-222.2362 -27.05976,-56.64141 -122.34452,-94.51472 -112.19028,-156.92395 44.56211,-45.44051 115.48521,-0.44225 140.14146,45.82856 61.40468,86.68588 79.01453,215.09989 9.0882,302.26239 -82.22167,115.3519 -252.32571,158.1456 -376.39319,86.0209 -56.66464,-31.1735 -104.01147,-85.9062 -173.2344,-87.0562 -52.39073,-4.2335 -115.62831,9.3805 -145.54899,55.9864 -33.83734,75.2462 40.55039,130.802 74.51839,187.1369 14.11683,33.3715 21.50498,102.3832 -30.85717,104.2524 z m 955.49991,0.7365 C 1082.486,1208.9414 985.0194,1055.6679 1035.3167,930.3319 1065.6883,798.219 1085.7862,650.10608 1019.9154,525.13816 960.25999,432.21518 843.9712,379.23171 734.81439,389.15557 c -71.36457,8.07774 -152.79562,52.72869 -163.89061,129.65353 3.09762,74.85252 90.69736,84.4365 135.47671,125.79691 49.0733,26.63197 58.53181,130.05369 -17.408,103.47219 -73.99665,-9.942 -143.0113,-60.0889 -163.0678,-134.00906 -28.6534,-114.67572 35.58091,-239.47625 134.78887,-298.8562 72.01634,-46.7273 165.42325,-47.01174 241.97532,-11.19017 117.19712,46.00693 217.95652,152.32539 226.17382,282.36923 17.7117,151.6072 -40.6428,303.3546 -8.7651,454.0503 10.1964,52.7587 56.4349,116.0815 116.8493,95.6702 37.5014,-15.6081 129.2623,-66.9724 133.7597,3.4159 -15.8299,67.9503 -94.8899,85.4209 -154.954,81.4225 z"
     id="path2987"
     inkscape:connector-curvature="0" />
</svg>
