<?xml version="1.0" encoding="UTF-8" standalone="no"?>
<!-- Created with Inkscape (http://www.inkscape.org/) -->

<svg
   xmlns:dc="http://purl.org/dc/elements/1.1/"
   xmlns:cc="http://creativecommons.org/ns#"
   xmlns:rdf="http://www.w3.org/1999/02/22-rdf-syntax-ns#"
   xmlns:svg="http://www.w3.org/2000/svg"
   xmlns="http://www.w3.org/2000/svg"
   xmlns:sodipodi="http://sodipodi.sourceforge.net/DTD/sodipodi-0.dtd"
   xmlns:inkscape="http://www.inkscape.org/namespaces/inkscape"
   id="svg2"
   version="1.1"
   inkscape:version="0.48.2 r9819"
   width="1325"
   height="1481"
   sodipodi:docname="vizit karta 2.png">
  <metadata
     id="metadata8">
    <rdf:RDF>
      <cc:Work
         rdf:about="">
        <dc:format>image/svg+xml</dc:format>
        <dc:type
           rdf:resource="http://purl.org/dc/dcmitype/StillImage" />
        <dc:title></dc:title>
      </cc:Work>
    </rdf:RDF>
  </metadata>
  <defs
     id="defs6" />
  <sodipodi:namedview
     pagecolor="#ffffff"
     bordercolor="#666666"
     borderopacity="1"
     objecttolerance="10"
     gridtolerance="10"
     guidetolerance="10"
     inkscape:pageopacity="0"
     inkscape:pageshadow="2"
     inkscape:window-width="1280"
     inkscape:window-height="1002"
     id="namedview4"
     showgrid="false"
     inkscape:zoom="0.31870358"
     inkscape:cx="947.52204"
     inkscape:cy="322.92181"
     inkscape:window-x="-8"
     inkscape:window-y="-8"
     inkscape:window-maximized="1"
     inkscape:current-layer="svg2" />
  <path
     style="fill:#000000"
     d="m 573.97812,1479.2003 c 0.28866,-0.9898 1.04752,-7.3531 1.68637,-14.1406 0.63885,-6.7875 2.72243,-22.7535 4.63017,-35.48 4.22943,-28.2143 5.53263,-37.4142 6.6445,-46.9064 0.47112,-4.0221 1.5839,-10.9638 2.47283,-15.4261 0.88892,-4.4623 2.10212,-12.2783 2.69598,-17.3689 0.59386,-5.0906 2.21311,-17.1229 3.59834,-26.7385 3.73875,-25.9527 4.82508,-36.1874 4.72816,-44.5459 -0.0529,-4.5612 0.4737,-8.6103 1.33744,-10.2841 0.8418,-1.6312 2.11169,-10.9653 3.10393,-22.8147 0.9236,-11.0296 2.15201,-22.3678 2.72981,-25.1959 1.47864,-7.2374 3.42152,-32.1727 3.36853,-43.2322 -0.0245,-5.1121 -0.61149,-12.2994 -1.30441,-15.9719 -1.14721,-6.0799 -1.06999,-7.1587 0.86363,-12.0644 1.97025,-4.9986 2.1208,-7.4608 2.08597,-34.1165 -0.0448,-34.3392 -0.78947,-42.4678 -4.55499,-49.7271 -10.18728,-19.6393 -36.83362,-46.7709 -77.66688,-79.08137 -4.80705,-3.8037 -17.73222,-14.08558 -28.72262,-22.84863 -21.40971,-17.07075 -25.10687,-19.0848 -35.0337,-19.0848 -7.55233,0 -13.47036,1.82798 -31.97561,9.87677 -19.17107,8.33837 -23.90351,9.29277 -37.35606,7.53366 -9.26241,-1.2112 -10.62636,-1.16657 -14.91188,0.48797 -5.66773,2.18818 -12.9305,4.19124 -20.85157,5.75083 -3.2178,0.63355 -6.92006,1.98632 -8.22724,3.00615 -1.52502,1.18979 -3.10554,1.5948 -4.41059,1.13022 -2.02622,-0.72133 -2.02622,-0.72812 0,-1.80801 1.11864,-0.59618 6.78158,-2.55721 12.58432,-4.35787 13.35694,-4.14479 16.19525,-6.57217 11.30318,-9.66673 -3.02106,-1.91103 -31.94234,-11.22614 -42.15116,-13.57626 -4.37618,-1.00742 -7.75676,-2.03159 -7.51242,-2.27593 0.24433,-0.24434 4.41903,0.14709 9.27709,0.86985 6.39921,0.95205 9.14307,1.00386 9.95888,0.18804 0.8158,-0.8158 2.15208,-0.45208 4.85002,1.32013 2.04819,1.3454 7.88901,3.37174 12.97962,4.50298 5.09061,1.13124 14.57765,3.28562 21.08231,4.7875 15.00417,3.46436 28.63756,3.90703 31.81335,1.03299 1.16821,-1.05723 2.12403,-2.45036 2.12403,-3.09586 0,-1.44932 -11.14539,-16.14345 -16.22387,-21.38961 -2.05329,-2.12109 -3.18831,-3.85652 -2.52225,-3.85652 0.66605,0 5.73488,4.32782 11.26407,9.61737 5.52918,5.28955 11.06391,10.14877 12.29937,10.79826 4.02084,2.11376 7.97124,1.26572 17.85659,-3.83333 5.34647,-2.75782 11.572,-5.59303 13.83449,-6.30046 4.86277,-1.52047 7.71304,-3.78021 7.71304,-6.11502 0,-0.92665 -2.35889,-4.4415 -5.24198,-7.81075 -2.88308,-3.36926 -8.66567,-10.61282 -12.8502,-16.09683 -8.7864,-11.51496 -12.09393,-14.31078 -21.11007,-17.84418 -7.20719,-2.82447 -11.03718,-3.33176 -16.07455,-2.12905 -2.94108,0.70221 -3.34231,0.54563 -3.34231,-1.30433 0,-2.35333 -1.60096,-3.40982 -8.876,-5.85739 -2.75411,-0.92657 -8.43987,-3.48511 -12.63503,-5.68563 -5.60273,-2.93885 -8.86511,-4.00096 -12.28944,-4.00096 -3.62592,0 -4.38765,-0.27425 -3.42781,-1.23409 3.12451,-3.12451 0.24445,-6.7524 -12.7967,-16.11956 -8.57132,-6.1566 -17.92988,-10.7194 -26.5502,-12.94467 -7.53054,-1.94394 -10.70597,-1.99448 -12.81512,-0.20392 -1.32792,1.12733 -2.07963,1.1396 -4.12785,0.0674 l -2.50427,-1.31097 2.89039,-0.72544 c 1.5897,-0.39899 6.99238,-0.45967 12.00596,-0.13486 8.49069,0.55009 9.22096,0.44017 10.65241,-1.60352 1.52597,-2.17863 1.56153,-2.16522 5.04117,1.89997 1.92741,2.25173 5.98434,5.41871 9.0154,7.03773 3.03106,1.61901 11.58084,7.24887 18.99951,12.51077 15.40154,10.92398 22.57447,14.79798 32.78975,17.70924 13.96099,3.97877 17.90461,4.6362 19.56153,3.26108 2.35067,-1.95087 1.87506,-3.47081 -2.94144,-9.40036 -7.47346,-9.20052 -28.65213,-37.72577 -36.91095,-49.71484 -8.89289,-12.90954 -13.67815,-18.18267 -19.10354,-21.05116 -6.68659,-3.53532 -7.24068,-4.14379 -3.17951,-3.49156 5.2947,0.85032 5.857,-1.54085 1.96288,-8.34707 -1.70292,-2.97636 -3.0962,-5.65901 -3.0962,-5.96144 0,-0.30242 1.53214,-0.0796 3.40475,0.4951 2.98916,0.91739 3.35197,1.4046 2.9723,3.99142 -0.67936,4.62885 2.39407,9.45806 20.72517,32.56501 7.51533,9.47331 9.66764,11.56956 11.87898,11.56956 2.31546,0 2.9639,0.74119 4.54635,5.19668 1.71588,4.83119 14.75949,21.29982 22.73617,28.70629 2.84256,2.63935 5.27755,2.25652 6.75941,-1.06272 0.36191,-0.81063 2.70676,-5.54732 5.21076,-10.52597 3.95847,-7.8705 4.53779,-9.85452 4.43813,-15.19942 -0.11184,-5.99952 -0.0672,-6.10437 1.85992,-4.36042 3.95414,3.57846 7.62268,-2.35264 6.47439,-10.46748 -0.32016,-2.26249 -1.70334,-6.89032 -3.07375,-10.28405 -1.56565,-3.87725 -1.89079,-5.40604 -0.87487,-4.11363 3.09121,3.93251 5.72256,11.11519 6.26548,17.10256 0.64263,7.08706 -0.91071,11.91145 -7.57271,23.51946 -5.50192,9.58666 -6.77634,14.92404 -5.37435,22.50813 1.39233,7.53182 5.00064,14.49438 12.0477,23.24713 14.15062,17.57569 31.00264,32.84908 53.82846,48.78607 9.99164,6.97616 10.59943,6.63673 11.39864,-6.36563 0.4057,-6.60049 1.54762,-12.40797 3.73901,-19.01548 3.86622,-11.65748 4.08192,-18.74778 0.85143,-27.98679 -2.88939,-8.26347 -8,-13.95948 -13.4406,-14.98014 -3.73421,-0.70054 -3.80979,-0.79376 -1.79039,-2.20821 1.17045,-0.81981 2.10841,-2.62161 2.10841,-4.05018 0,-1.41536 0.40753,-2.32153 0.90561,-2.0137 2.14529,1.32586 13.59216,19.29648 15.51539,24.35783 1.15818,3.048 2.53574,6.29845 3.06127,7.22321 1.05989,1.8651 -0.25393,10.59567 -4.05375,26.93793 -2.90211,12.48138 -2.14773,17.12234 4.67874,28.78401 4.99273,8.52907 6.51716,9.84234 31.82722,27.41836 11.04749,7.67169 31.28177,23.10944 42.01365,32.05454 3.13729,2.6148 4.31541,3.0738 5.65623,2.2036 2.47012,-1.6032 1.95494,-6.5433 -2.82704,-27.10916 -5.89467,-25.35119 -8.61487,-34.70333 -14.18767,-48.77764 -9.04114,-22.83373 -15.75254,-34.89307 -42.21711,-75.85756 -10.31843,-15.97189 -20.57972,-31.87124 -22.80289,-35.33191 -12.73142,-19.81828 -24.41128,-42.70907 -29.92624,-58.651 -4.30896,-12.45583 -6.19664,-14.17587 -19.69466,-17.94565 -11.3905,-3.18118 -35.45956,-8.67525 -53.77734,-12.27537 -17.94514,-3.52688 -43.14714,-9.91233 -57.63397,-14.60277 -11.94542,-3.86761 -17.49376,-6.37224 -38.65762,-17.45085 -7.69303,-4.02706 -18.03825,-4.88148 -29.15596,-2.40803 -24.54667,5.46112 -38.89883,19.29352 -51.6903,49.81837 -8.1955,19.55726 -7.81015,17.67439 -6.44128,31.47236 0.67337,6.78747 1.04839,14.19199 0.83339,16.45449 l -0.39093,4.11362 -2.31664,-7.11919 c -3.26673,-10.03883 -5.57873,-12.12944 -8.90226,-8.04979 -9.58085,11.76052 -12.99426,15.26852 -19.35908,19.89552 -11.33151,8.23764 -14.08286,11.13079 -14.78986,15.55216 -0.34201,2.13886 -0.79409,3.88883 -1.00461,3.88883 -0.21052,0 -1.29744,-0.91468 -2.41539,-2.03263 -2.60024,-2.60024 -4.8604,-1.80109 -10.57788,3.7401 -6.65055,6.44549 -10.43907,15.16456 -13.96947,32.15001 -3.4345,16.52405 -3.25099,18.39148 2.12971,21.67209 l 3.36795,2.05344 -3.59942,0.0267 c -4.08446,0.0303 -7.20707,2.17193 -9.71887,6.66561 -0.94848,1.69687 -1.47709,2.2725 -1.1747,1.27917 1.79047,-5.88131 4.79912,-24.95954 4.52869,-28.71698 -0.26128,-3.63035 -0.72144,-4.50004 -2.51645,-4.75603 -1.20819,-0.17229 -3.75349,0.63584 -5.65623,1.79587 -5.81758,3.54673 -6.86308,2.34969 -1.24956,-1.43068 6.7614,-4.5534 11.19319,-9.97001 13.75455,-16.81105 5.00298,-13.36233 9.80565,-19.26068 24.99895,-30.70222 5.75125,-4.33105 12.61527,-9.69353 15.2534,-11.91661 7.95074,-6.69991 16.27877,-20.09072 22.07974,-35.50246 5.69606,-15.13305 1.9923,-16.97091 -24.49397,-12.15433 -37.09466,6.74577 -40.61897,6.57369 -70.25713,-3.43043 -14.90631,-5.03149 -22.32605,-6.34962 -23.65333,-4.20203 -1.11423,1.80288 -3.23273,1.10859 -4.39395,-1.44 -0.61858,-1.35763 -0.91303,-2.68007 -0.65434,-2.93876 0.76463,-0.76464 15.75813,1.89905 26.93267,4.78474 13.49568,3.4851 14.38895,3.44849 16.17601,-0.66308 0.79899,-1.83828 1.47083,-2.79679 1.49297,-2.13004 0.0221,0.66676 1.59893,2.86498 3.504,4.88493 l 3.46375,3.67264 9.2783,0 c 7.7453,0 12.63158,-0.85022 29.57346,-5.14588 11.38561,-2.88685 24.06497,-5.43566 28.88249,-5.80596 10.93948,-0.84087 13.65047,-2.47601 17.76859,-10.71709 5.47624,-10.95894 4.30539,-13.14417 -7.98468,-14.90218 l -7.82945,-1.11997 5.44975,-1.20837 c 2.99736,-0.66459 7.62518,-1.21094 10.28405,-1.2141 7.86309,-0.009 11.57037,-1.64159 20.39685,-8.98046 9.05384,-7.5279 18.08798,-12.51002 30.2015,-16.65544 10.37118,-3.54917 10.3988,-4.27159 0.72114,-18.86308 -4.21081,-6.34886 -8.4754,-13.16312 -9.47684,-15.1428 -3.43694,-6.7942 -23.37088,-38.25962 -26.48556,-41.80705 -5.01064,-5.70681 -8.21993,-6.87401 -17.20675,-6.25805 -8.89063,0.60938 -21.88019,5.44098 -38.25535,14.22947 -10.70482,5.74522 -15.2224,9.89326 -15.2224,13.97719 l 0,2.73406 -2.38019,-2.23608 c -3.06431,-2.87877 -5.10991,-2.81599 -14.82395,0.45493 -5.90483,1.98829 -11.2486,2.88683 -20.46334,3.44084 -10.76478,0.64722 -13.13991,1.12338 -17.35532,3.47943 -5.62213,3.14226 -6.07343,3.25145 -5.31958,1.28694 0.30448,-0.79345 -0.0369,-2.25022 -0.75865,-3.23726 -1.19355,-1.63227 -2.97804,-1.73997 -19.72618,-1.1906 -16.221461,0.5321 -22.28822,1.11999 -34.868406,3.37885 -3.044212,0.54661 -3.052388,0.53609 -0.615147,-0.7911 1.358538,-0.73978 2.978277,-2.17866 3.599419,-3.19749 0.941902,-1.54496 0.531927,-2.35116 -2.470069,-4.85726 -2.443264,-2.03967 -3.056684,-3.01372 -1.909738,-3.0325 0.929325,-0.0152 1.948654,0.64721 2.265175,1.47205 0.316522,0.82484 3.232896,2.27224 6.480826,3.21644 6.236107,1.81288 7.323759,1.79641 38.41358,-0.5818 8.20153,-0.62738 20.23387,-1.54395 26.73854,-2.03682 13.58589,-1.02943 21.67878,-3.35996 32.87055,-9.4658 15.05545,-8.21373 16.03843,-9.777 9.55118,-15.18961 l -3.85652,-3.21767 4.11362,1.76045 c 2.26249,0.96825 6.42753,1.9339 9.25565,2.1459 4.62271,0.34652 6.02486,-0.12294 13.88347,-4.64835 8.22054,-4.73383 21.15035,-10.50505 23.53544,-10.50505 1.6218,0 3.39645,-3.94114 2.72593,-6.05375 -0.58888,-1.85542 -9.76171,-10.47434 -21.79104,-20.47516 -27.56296,-22.91503 -68.15896,-41.72861 -95.99842,-44.48897 -8.50937,-0.84373 -13.70165,-0.86608 -18.511296,-0.0797 -3.676549,0.60113 -9.379428,1.53685 -12.673061,2.07937 -6.396528,1.05362 -18.607245,6.40331 -25.993054,11.38793 -2.47887,1.67297 -5.437075,3.5395 -6.573787,4.14786 -3.447607,1.84512 -2.31139,0.32428 1.53267,-2.05148 2.730492,-1.68754 3.599419,-2.92148 3.599419,-5.11145 0,-2.48034 0.502562,-2.98117 3.56866,-3.55637 1.962762,-0.36822 8.441634,-2.49986 14.397491,-4.73698 12.330582,-4.63158 25.118338,-7.16331 36.181898,-7.16331 7.04946,0 7.68286,-0.18103 8.73833,-2.49754 l 1.13796,-2.49755 4.93081,3.39181 c 2.91122,2.00257 8.4385,4.33386 13.49478,5.69181 28.91731,7.76628 49.80539,17.3347 73.8677,33.83733 27.58702,18.91998 49.79229,41.58868 70.01275,71.47394 10.16792,15.02788 11.03424,16.06567 13.4113,16.06567 2.57361,0 3.80512,-2.74591 5.17057,-11.52879 0.96899,-6.23286 0.90314,-8.44837 -0.3814,-12.83032 -1.47061,-5.01676 -1.45123,-5.32307 0.36692,-5.79852 1.27554,-0.33356 1.94889,-1.48311 2.00701,-3.42637 0.0644,-2.15256 0.41955,-1.55758 1.34571,2.25436 1.50968,6.21359 2.32596,7.67632 4.28375,7.67632 1.97734,0 1.87625,1.47794 -0.21999,3.21639 -2.97935,2.47082 -4.25138,7.28036 -5.00027,18.90588 -0.86108,13.36733 -0.12931,15.82405 7.60659,25.53693 19.29987,24.23215 40.43279,34.56632 87.53845,42.80702 15.12596,2.64615 16.63096,2.61548 19.46064,-0.39658 1.89629,-2.01851 2.19507,-3.12975 1.58648,-5.90063 -1.15445,-5.25622 -5.45703,-14.66577 -12.38821,-27.09251 -9.75961,-17.49775 -11.46121,-21.19477 -13.6027,-29.55423 -1.1419,-4.45748 -3.21268,-9.37533 -4.85359,-11.52667 l -2.86196,-3.75222 2.35756,-1.6513 c 2.30296,-1.61306 2.34109,-1.92684 1.64635,-13.54743 -0.39117,-6.54287 -0.46269,-11.64761 -0.15894,-11.34385 0.30376,0.30375 1.93587,7.92607 3.62691,16.93848 4.88345,26.02629 7.73825,33.06163 13.00709,32.05443 2.25021,-0.43017 2.35135,-0.21841 1.80374,3.77685 -0.52341,3.81863 -0.0772,4.98567 4.56196,11.93345 13.12394,19.65465 18.72365,30.79452 18.72365,37.24818 0,2.84155 2.74477,7.63882 4.82796,8.43822 3.7474,1.43801 37.77405,6.74992 39.57554,6.17814 3.70482,-1.17587 3.99474,-3.79014 1.89331,-17.0724 -1.10456,-6.98147 -3.20038,-21.48644 -4.65738,-32.23327 -3.96488,-29.24499 -7.36659,-48.29159 -12.39795,-69.41737 -6.48598,-27.23361 -10.99595,-40.38702 -20.49491,-59.77384 -8.73366,-17.82487 -15.41585,-24.46141 -31.93524,-31.71705 -12.33656,-5.41846 -21.10323,-7.61323 -26.92363,-6.74041 -12.49888,1.87432 -29.94534,15.31755 -36.41122,28.05634 -2.94494,5.80199 -3.43768,7.92256 -3.84811,16.56087 -0.56338,11.85756 -1.92793,9.21802 -2.08235,-4.02804 -0.0621,-5.32815 -0.588,-9.27836 -1.33459,-10.02495 -0.95718,-0.95717 -0.53057,-1.97829 1.91201,-4.5764 1.72926,-1.83938 5.11394,-6.12102 7.52151,-9.51476 2.40758,-3.39374 6.90463,-8.56419 9.99346,-11.4899 5.09168,-4.8228 5.50226,-5.53209 4.39737,-7.5966 l -1.21869,-2.27714 -43.33867,0.67104 c -28.22965,0.4371 -46.56543,0.29231 -52.59431,-0.41533 -5.09061,-0.5975 -15.8503,-1.35725 -23.91043,-1.68831 -8.20083,-0.33684 -14.65477,-1.03435 -14.65477,-1.58381 0,-0.61861 6.56301,-0.66581 17.73999,-0.12756 9.757,0.46986 21.44225,0.85429 25.96724,0.85429 7.79536,0 8.2448,-0.12382 8.56173,-2.35865 0.24595,-1.73429 0.82032,-2.20446 2.16978,-1.77616 9.62928,3.05622 16.14645,3.52102 27.82161,1.98426 21.42761,-2.82048 27.11111,-3.37839 41.1483,-4.03927 12.4714,-0.58718 33.1765,0.46281 43.43191,2.20249 3.116,0.52858 3.97164,0.30362 4.5469,-1.19548 0.52089,-1.35741 -0.3597,-2.76772 -3.3241,-5.32374 -4.53354,-3.909 -30.31848,-21.26162 -40.92941,-27.54446 -3.82107,-2.26249 -12.58568,-7.93488 -19.47692,-12.60532 -19.23104,-13.03353 -16.99428,-12.50761 -34.64025,-8.14496 -19.98602,4.94118 -41.52418,7.81006 -66.10173,8.80474 -22.74788,0.92063 -63.73281,-0.10391 -85.58808,-2.13953 -25.36701,-2.3627 -38.54314,-1.20137 -61.706534,5.43878 -6.039568,1.73133 -11.211574,2.91734 -11.493347,2.63556 -1.61692,-1.61692 37.940491,-11.98636 45.725661,-11.98636 3.3745,0 5.70889,-2.04764 4.83421,-4.24037 -0.69409,-1.74004 -43.942092,-23.17322 -48.565268,-24.06836 -3.787566,-0.73336 -4.862374,-1.89191 -3.666872,-3.95256 0.650034,-1.12045 3.126558,-0.11622 11.575567,4.69395 15.057409,8.57244 22.223313,11.44771 26.734943,10.72722 3.24931,-0.5189 3.84559,-0.24685 5.39967,2.46367 0.96085,1.67585 3.27477,3.71638 5.14203,4.53452 1.86727,0.81813 7.79146,3.47313 13.16488,5.89997 l 9.76985,4.41244 27.76695,0.38124 c 31.99693,0.43933 62.89759,-1.09002 65.02586,-3.21831 1.97386,-1.97386 0.79912,-4.08711 -3.56431,-6.41187 -6.96516,-3.7109 -20.82056,-14.5101 -32.10889,-25.02637 -10.20603,-9.508 -19.11287,-15.55863 -22.90308,-15.55863 -2.29584,0 -2.8375,-1.07659 -1.566,-3.11259 1.53596,-2.45946 -0.0211,-4.31749 -7.89462,-9.42087 -8.38539,-5.43513 -16.50034,-7.70642 -30.45117,-8.52294 -13.54643,-0.79286 -35.96856,-3.29594 -36.77835,-4.10572 -0.30141,-0.30141 1.80996,-0.54802 4.69195,-0.54802 6.52488,0 8.85637,-1.92178 7.95216,-6.55476 -0.61316,-3.14175 -0.5726,-3.12125 1.77791,0.89853 3.41975,5.84835 6.10803,6.7619 21.66724,7.36316 25.40298,0.98164 32.85437,4.70416 63.7192,31.83254 26.68084,23.45088 48.66538,35.3637 65.26208,35.3637 9.63438,0 29.93332,-4.83762 33.4636,-7.97502 2.86969,-2.55031 2.17981,-4.55862 -4.17208,-12.14516 -16.2528,-19.412 -22.67462,-34.61009 -24.42911,-57.81479 -0.51963,-6.87261 -1.24955,-10.21698 -2.60635,-11.94187 -2.61065,-3.31889 -26.78444,-15.02052 -31.03013,-15.02052 -2.10876,0 -6.41573,1.73398 -11.49112,4.62632 -4.46498,2.54448 -8.23604,4.50844 -8.38012,4.36435 -0.14409,-0.14409 3.0575,-2.59012 7.11463,-5.43563 8.5774,-6.01583 9.45959,-8.2226 4.84079,-12.10907 -5.03513,-4.23677 -21.62882,-14.20505 -27.80213,-16.70148 -10.4421,-4.22269 -16.02111,-4.84732 -24.36503,-2.72796 -7.13388,1.81201 -7.45285,1.81269 -8.98848,0.0192 -1.24285,-1.45154 -3.11727,-1.86119 -8.54395,-1.86728 -7.46351,-0.008 -22.81623,-1.55993 -26.26417,-2.65426 -1.72415,-0.54722 -1.83008,-0.82194 -0.58556,-1.51841 0.88689,-0.49633 3.20428,-0.25006 5.56665,0.59153 3.02253,1.07679 10.21836,1.45328 28.42124,1.48699 13.67251,0.0253 26.76674,0.54537 29.82376,1.18448 6.18895,1.29388 23.5151,9.6057 30.56412,14.66243 11.30194,8.1076 30.86796,18.13557 35.38518,18.13557 2.84115,0 4.80419,-1.79954 4.80419,-4.40403 0,-3.35531 -6.22979,-16.40901 -11.14981,-23.36292 -6.77538,-9.57628 -11.25162,-14.20008 -26.90119,-27.78803 -15.41492,-13.3842 -24.43309,-22.50933 -33.25407,-33.64844 -7.84583,-9.9077 -8.77843,-10.07622 -21.16163,-3.82386 -7.59584,3.83521 -11.27318,5.08348 -16.01607,5.4367 -5.61138,0.4179 -6.03272,0.30942 -4.75901,-1.2253 0.99444,-1.19822 3.08386,-1.6838 7.24533,-1.6838 4.85143,0 6.88905,-0.61809 11.95785,-3.62729 6.77909,-4.02456 10.73975,-7.92497 10.73391,-10.57063 -0.003,-1.60666 -0.76256,-3.07627 -6.27002,-12.13999 l -1.94371,-3.19878 2.44739,0.46785 c 1.85376,0.35437 2.5857,1.32009 3.01758,3.98147 1.29412,7.97476 23.50065,35.12354 39.55881,48.36296 24.24084,19.98577 28.01022,23.27099 33.48313,29.18237 3.19696,3.45311 5.81267,6.69851 5.81267,7.212 0,0.51348 0.95515,1.44477 2.12255,2.06955 3.5998,1.92655 4.74928,-0.26744 5.55005,-10.59328 0.40501,-5.22269 1.63127,-14.99915 2.72502,-21.72545 1.82045,-11.19532 1.85165,-12.43871 0.36894,-14.70162 -0.89083,-1.35957 -2.86787,-2.96913 -4.39342,-3.57678 -13.37693,-5.32825 -20.20001,-9.59745 -29.40875,-18.40107 -15.14858,-14.48213 -24.34675,-29.31938 -27.72263,-44.71835 -0.86286,-3.93595 -1.88157,-8.19754 -2.26378,-9.47019 -0.42001,-1.39848 -0.25632,-2.31391 0.41375,-2.31391 0.6098,0 1.5834,-1.76282 2.16355,-3.91737 1.15297,-4.28177 6.88589,-13.56552 8.37701,-13.56552 2.16914,0 0.82071,4.85375 -1.72725,6.21739 -4.21124,2.25378 -5.97327,6.71779 -5.86749,14.86492 0.29415,22.65353 25.32291,54.12501 51.66284,64.9615 7.2336,2.97597 8.48225,2.96451 12.13769,-0.11133 4.19897,-3.5332 9.01965,-19.14726 8.00353,-25.92324 -0.66469,-4.43244 -3.52902,-8.71776 -6.49863,-9.72255 -0.82072,-0.2777 -0.9444,-1.39551 -0.3852,-3.48146 l 0.82364,-3.07244 2.92074,5.12925 c 3.65802,6.42405 5.39747,7.92361 7.73812,6.67092 3.09836,-1.6582 14.97112,-23.08109 17.52916,-31.62917 1.78187,-5.95436 2.32717,-4.87183 0.82471,1.6372 -1.05386,4.56556 -0.99226,5.53133 0.45484,7.13036 1.57053,1.7354 1.36465,2.11585 -3.33627,6.16512 -9.54268,8.21987 -21.97707,38.50025 -26.9162,65.54668 -2.1121,11.56581 -2.43654,16.49065 -2.40511,36.5084 0.0241,15.33635 0.46761,24.60056 1.31524,27.47303 0.70339,2.38365 1.95287,12.00018 2.77661,21.37006 1.10347,12.55152 2.19846,19.12355 4.15963,24.96577 4.5543,13.56705 12.85065,25.8297 26.32191,38.90586 9.99345,9.70034 17.31582,15.36168 30.27003,23.40346 15.841,9.83386 18.65079,7.83006 14.99588,-10.69429 -4.06536,-20.60468 -8.94686,-30.90425 -15.41675,-32.52808 l -2.44446,-0.61353 2.93017,-2.33878 2.93016,-2.33877 -3.83336,-11.66469 c -6.11386,-18.60414 -6.9806,-22.79907 -4.51519,-21.853 0.78171,0.29996 1.95358,3.17783 2.60415,6.39525 1.28958,6.37774 20.3258,44.16309 23.14963,45.95017 1.10835,0.70143 2.25792,0.61824 3.67352,-0.26582 2.42962,-1.51732 2.53102,-0.95529 1.01371,5.61873 -0.80188,3.47436 -0.51193,6.38497 1.48557,14.91188 1.36506,5.82718 2.79801,13.37109 3.18431,16.76424 0.38631,3.39315 1.30795,7.3268 2.04808,8.74145 0.74013,1.41464 5.37304,5.11738 10.29534,8.22831 4.92229,3.11092 12.9462,8.52534 17.83091,12.03202 4.8847,3.50669 10.62659,7.62583 12.75975,9.15362 5.13302,3.67636 8.30243,2.4556 10.16211,-3.91414 2.00698,-6.87419 1.71328,-33.75664 -0.45653,-41.78675 -6.2709,-23.20768 -17.55265,-42.29814 -53.27643,-90.15196 -15.90192,-21.30145 -22.27875,-30.90562 -27.65439,-41.65042 -2.40534,-4.8078 -5.92643,-10.87055 -7.82463,-13.47277 l -3.45128,-4.73132 2.54584,-1.15997 c 2.30093,-1.04836 2.55318,-1.78042 2.62208,-7.60954 0.0419,-3.54727 0.43909,-8.5321 0.8826,-11.07741 0.62976,-3.61417 0.80329,-2.26264 0.79228,6.17044 -0.0203,15.5225 2.76259,24.0027 13.10333,39.92954 6.30543,9.71164 15.67827,20.67583 18.63636,21.8005 3.33593,1.26831 6.5612,-0.28028 9.492,-4.55752 4.87248,-7.11091 4.90149,-11.5983 0.14865,-22.99745 -1.87056,-4.4863 -1.88116,-4.67775 -0.13599,-2.45637 1.26246,1.60695 2.71223,2.29182 4.35397,2.05681 2.07322,-0.29678 2.77365,-1.44688 4.4423,-7.29407 1.19404,-4.18407 2.53509,-6.94174 3.3758,-6.94174 1.80313,0 1.76954,0.25872 -0.55983,4.31194 -1.39684,2.43058 -2.27254,7.09571 -3.0688,16.34839 -1.14888,13.35024 -2.62332,18.50371 -6.89719,24.10704 -4.56598,5.98631 -3.62875,8.78886 7.38375,22.07899 30.72578,37.08057 44.38029,61.17717 48.65989,85.87185 2.00741,11.58346 2.10033,11.84576 4.5994,12.98441 3.51347,1.60085 16.46468,-3.99965 21.73827,-9.40029 2.43467,-2.49333 4.95351,-4.09832 6.43181,-4.09832 1.33645,0 3.29697,-0.46404 4.3567,-1.03118 1.35958,-0.72763 2.15013,-0.66981 2.68548,0.1964 0.41729,0.67518 0.32605,1.37181 -0.20274,1.54807 -3.11257,1.03753 -18.94243,12.1752 -18.94243,13.32763 0,0.76185 -0.57847,1.38553 -1.2855,1.38598 -0.70703,4.4e-4 -4.14871,1.35533 -7.64819,3.01087 -7.62669,3.60805 -8.76418,5.46697 -11.83169,19.33585 -3.61,16.32152 -3.37409,18.20063 3.40592,27.12862 10.32925,13.60165 14.16235,19.94887 22.05959,36.52846 4.27592,8.97695 8.14185,17.0159 8.59096,17.86434 0.4491,0.84843 1.8586,1.5426 3.13221,1.5426 1.91978,0 3.40353,-2.10977 8.67897,-12.34086 7.79214,-15.11191 13.98755,-25.4212 23.92494,-39.81156 9.12415,-13.21271 9.79912,-14.74612 12.57924,-28.57741 4.49074,-22.34181 4.50403,-45.33217 0.0348,-60.12714 -5.21942,-17.27836 -14.84693,-31.05283 -38.78404,-55.48989 C 453.23,346.55558 440.10767,331.58254 431.2651,318.98908 409.11462,287.4427 401.47285,256.05284 408.9616,227.37369 c 1.10772,-4.24217 3.43687,-13.03504 5.17588,-19.5397 5.40543,-20.21865 6.51164,-48.47311 2.56961,-65.63186 -2.02465,-8.81281 -7.6072,-20.57984 -12.14813,-25.60611 -4.99064,-5.52404 -4.75201,-6.58651 0.4282,-1.9065 7.23695,6.53816 9.73621,6.74462 16.63835,1.37453 4.82122,-3.75107 7.67355,-7.73846 10.7827,-15.07364 1.94244,-4.582663 2.31056,-5.027716 1.7927,-2.167401 -1.43136,7.906031 -6.42837,15.175601 -15.66503,22.789231 -3.95626,3.26108 -4.22075,6.14669 -1.33278,14.54074 6.09479,17.71481 6.75214,46.16037 1.62082,70.1384 -6.73097,31.453 -6.87485,32.45117 -6.37429,44.22144 0.52302,12.29849 3.0524,23.56069 7.53466,33.54848 1.9048,4.24447 3.25784,6.03773 4.39213,5.82115 1.34766,-0.25732 1.75316,-2.50642 2.27932,-12.64248 0.77576,-14.94399 2.52785,-22.14432 8.43323,-34.6568 2.47982,-5.25429 5.08713,-11.32468 5.79404,-13.48975 l 1.28529,-3.9365 1.96496,2.10915 c 1.94367,2.08627 1.92686,2.15909 -1.55049,6.71466 -7.87205,10.31294 -11.27621,21.88292 -11.21836,38.1286 0.0429,12.03475 3.72807,35.06719 6.57379,41.08598 1.08278,2.29013 6.15477,8.90738 11.27109,14.70502 13.6508,15.46861 14.74305,15.04774 24.53901,-9.45564 10.57291,-26.44683 14.54659,-41.6502 16.59562,-63.49509 2.06775,-22.04438 -0.82348,-42.36922 -8.5309,-59.97068 -4.97192,-11.35439 -7.55416,-19.10664 -8.52843,-25.60352 -0.71167,-4.74576 -0.65665,-4.90326 1.33954,-3.83494 2.48429,1.32956 3.30252,0.54991 6.39343,-6.09195 1.17159,-2.51757 1.93675,-3.86117 1.70034,-2.98576 -0.23642,0.8754 -1.45492,5.24475 -2.70778,9.70968 -2.82535,10.06898 -2.42157,13.51904 2.86326,24.46424 2.24559,4.65073 4.87031,10.88523 5.83275,13.85445 1.81885,5.61146 4.62966,8.4849 8.29995,8.4849 3.47225,0 28.17601,-12.82206 35.66151,-18.50949 16.37519,-12.44179 26.45408,-31.83002 26.50878,-50.99358 0.0103,-3.44088 0.29914,-6.53742 0.64292,-6.88122 0.3438,-0.34378 1.61645,-0.0738 2.82812,0.59991 1.21168,0.67373 2.35102,1.29583 2.53188,1.38242 0.18087,0.0866 -0.56931,1.93773 -1.66707,4.11362 -1.09775,2.1759 -2.97087,8.22713 -4.16248,13.44716 -2.62406,11.49525 -4.19039,15.3889 -9.42829,23.43735 -2.69805,4.14576 -3.84161,6.90363 -3.46299,8.35148 0.45149,1.72651 -0.0212,2.30619 -2.34803,2.87946 -1.60232,0.39478 -5.45861,2.6922 -8.56954,5.1054 -8.11721,6.29664 -19.95552,13.2396 -28.98142,16.99709 -12.2281,5.09057 -11.63191,3.49516 -11.69235,31.28884 -0.0544,25.01748 -0.47577,28.52136 -6.13962,51.05399 -3.27251,13.01912 -6.891,23.70483 -13.00518,38.40538 -4.55637,10.95508 -4.95353,12.52265 -3.94612,15.57512 0.72682,2.20231 5.74064,7.85554 14.27909,16.1001 27.04037,26.10966 37.50147,43.02615 41.80571,67.60335 0.8302,4.74047 1.50946,12.45903 1.50946,17.15233 0,6.49237 0.39818,8.93145 1.66483,10.19812 1.48728,1.48728 1.84787,1.4992 3.38092,0.11182 6.10053,-5.52091 16.48159,-32.52819 19.00783,-49.4506 2.35555,-15.77909 2.65859,-19.67774 3.67718,-47.30665 0.52132,-14.14058 1.71449,-30.48189 2.65152,-36.31402 0.93701,-5.83214 1.42058,-12.11279 1.07461,-13.95702 -0.34598,-1.84423 -2.59041,-6.14206 -4.98761,-9.55074 -4.75519,-6.76158 -10.71,-18.49883 -9.83115,-19.37768 1.48571,-1.48572 3.73101,1.06215 4.23279,4.80317 0.69375,5.17224 7.80988,15.63757 10.95654,16.11322 3.12279,0.47204 4.29202,-0.78947 8.6214,-9.30178 5.38334,-10.58455 10.87879,-17.53706 28.19513,-35.67072 25.72797,-26.94232 31.73519,-35.68995 36.4391,-53.06206 1.94602,-7.18691 2.23185,-10.95813 2.26039,-29.82376 0.018,-11.87809 -0.35645,-33.16608 -0.83205,-47.30665 -1.10411,-32.827057 0.61518,-47.599011 7.15704,-61.492481 1.3865,-2.944633 2.21399,-4.196923 1.83884,-2.782865 -2.45546,9.255649 0.66215,9.060283 10.30549,-0.645787 4.33395,-4.362147 7.87991,-7.623014 7.87991,-7.246378 0,0.376636 -3.0881,4.041887 -6.86245,8.144998 -9.61876,10.456621 -15.53068,18.749632 -16.93162,23.751076 -1.84665,6.592614 -1.56584,36.899097 0.53513,57.754327 1.02566,10.18121 2.16638,21.51938 2.53494,25.19593 0.582,5.80581 0.96094,6.72609 2.88235,6.99995 1.8478,0.26335 3.11536,-1.34614 7.6942,-9.76985 3.01507,-5.54684 6.53614,-12.16769 7.8246,-14.71299 1.86005,-3.67444 2.22196,-4.01061 1.75682,-1.63178 -0.61917,3.16643 -3.51187,9.33754 -13.11378,27.97611 -3.71154,7.20459 -6.64903,14.62076 -7.94321,20.05391 -3.71643,15.60213 -6.10699,22.11517 -11.2706,30.70662 -6.05726,10.07834 -8.51819,13.14835 -24.98666,31.17095 -20.39477,22.31941 -26.32112,30.9438 -31.00799,45.12481 -5.06306,15.31921 -5.84491,22.49977 -6.75637,62.05033 -1.48964,64.63939 -4.22417,72.9713 -44.38423,135.23531 -23.88141,37.02567 -32.4473,52.81212 -38.22459,70.44578 -6.58792,20.10795 -7.25354,29.67707 -3.29107,47.31361 1.39704,6.21803 4.1818,20.79254 6.18837,32.38781 11.20447,64.74673 18.1246,90.74513 31.34276,117.75243 5.74877,11.74585 19.53078,34.11249 22.011,35.72134 3.63927,2.36071 5.79383,0.54612 41.8032,-35.20714 13.14486,-13.05137 18.18804,-20.96965 21.02738,-33.01501 3.29454,-13.97644 1.29905,-24.26989 -9.64502,-49.75264 -9.45012,-22.00417 -11.44123,-28.75886 -12.13147,-41.15521 -0.31495,-5.65623 -1.18561,-11.49718 -1.93479,-12.9799 -1.25752,-2.48872 -20.13528,-14.27284 -22.86462,-14.27284 -0.58069,0 -1.70349,-1.29831 -2.49509,-2.88513 l -1.4393,-2.88513 8.60485,4.42774 c 10.02112,5.15649 14.178,5.65087 15.89158,1.88998 0.94008,-2.06327 0.7175,-3.74576 -1.19047,-8.99855 -1.29071,-3.55344 -2.59361,-7.15497 -2.89533,-8.0034 -0.40358,-1.13494 0.0316,-1.0335 1.64659,0.38388 1.42661,1.25199 3.13839,1.74617 4.88922,1.41149 2.36755,-0.45259 2.60954,-0.24985 1.9967,1.67293 -1.6915,5.30707 -1.61392,8.1104 0.39305,14.20314 1.1769,3.57285 2.66731,9.04139 3.312,12.15232 2.17019,10.47218 4.6228,10.73174 15.466,1.63671 l 7.84944,-6.58394 1.37321,2.73072 c 0.75526,1.50189 1.54231,3.0778 1.74901,3.50202 0.20669,0.42421 -0.61132,0.7713 -1.81779,0.7713 -5.25223,0 -14.13965,6.8572 -17.60764,13.5854 -3.82106,7.41319 -2.46331,12.3086 8.7375,31.50324 7.54492,12.92961 13.47887,25.34803 16.04777,33.58438 2.76696,8.87133 4.68032,8.77944 13.89644,-0.6673 3.94485,-4.04357 11.45319,-10.54529 16.6852,-14.44829 5.23202,-3.90298 9.51089,-7.42065 9.50862,-7.81704 -0.0134,-2.32927 -3.38936,-20.98349 -5.18962,-28.67557 -1.16723,-4.98725 -3.47457,-16.11508 -5.12745,-24.72852 -5.32422,-27.7456 -11.64261,-39.67476 -30.94904,-58.43192 -6.43094,-6.248 -13.17563,-11.9645 -14.98816,-12.70336 -2.89904,-1.18174 -3.22391,-1.70152 -2.70017,-4.32017 0.38059,-1.90297 -0.19277,-4.80882 -1.5894,-8.0554 -3.25696,-7.571 -2.62709,-7.59978 1.52135,-0.0695 4.27318,7.7567 8.90084,12.8391 20.83561,22.88304 4.73079,3.98128 11.19316,10.41113 14.3608,14.28854 8.7743,10.74033 11.27231,9.33709 12.23957,-6.87546 0.83534,-14.0015 -0.68271,-16.64911 -22.393,-39.05546 -14.85903,-15.33543 -17.79871,-18.91394 -20.84286,-25.37229 -7.64677,-16.22306 -8.69309,-32.74447 -3.23433,-51.07036 2.28689,-7.67741 2.94893,-6.01585 0.79884,2.00486 -3.64241,13.58762 -1.76338,36.49285 3.52996,43.02985 2.53668,3.13266 4.64369,1.94551 7.54639,-4.25185 1.3488,-2.87976 4.40046,-8.00246 6.78147,-11.38378 2.381,-3.38132 4.61486,-7.44897 4.96413,-9.0392 0.52653,-2.39727 1.15092,-2.87666 3.65407,-2.80549 1.66046,0.0472 3.01903,0.22422 3.01903,0.39336 0,0.16913 -2.96921,3.86465 -6.59822,8.21227 -8.46774,10.14445 -11.9372,16.58141 -12.57348,23.32782 -0.67431,7.14948 0.90238,9.70889 12.79675,20.77273 12.01283,11.17404 13.49732,11.31849 18.52923,1.80301 1.87705,-3.54958 5.95058,-9.05309 9.05226,-12.23003 3.10169,-3.17694 6.61388,-7.67726 7.80487,-10.00072 1.41924,-2.76874 2.33292,-3.69288 2.65148,-2.68185 1.32612,4.20872 3.48194,5.21917 9.91694,4.64817 l 6.24102,-0.55379 -6.36791,1.90477 c -13.42319,4.01514 -22.7365,12.153 -26.42431,23.08925 -2.41647,7.1661 -2.07959,10.31376 1.93391,18.06929 5.09562,9.84661 6.17448,16.25414 4.75843,28.26107 -2.4794,21.02317 -2.01415,24.00854 12.33532,79.15225 1.1436,4.39472 4.25361,6.26806 7.59413,4.57437 7.85507,-3.98262 15.9832,-14.05362 20.73339,-25.68933 2.65135,-6.49455 2.99124,-10.4812 1.26739,-14.86537 -0.62608,-1.59229 -1.54114,-4.24369 -2.03345,-5.89201 l -0.8951,-2.99696 2.07351,2.22566 c 3.83002,4.11104 6.82114,1.96985 9.10218,-6.51581 1.66367,-6.18896 6.29654,-13.52978 13.95429,-22.11071 3.78578,-4.24218 7.37994,-8.7543 7.98702,-10.02696 0.97528,-2.04449 3.85887,-3.31533 3.85887,-1.70065 0,0.33729 -2.46926,3.46107 -5.48724,6.94174 -12.29514,14.18011 -15.01683,19.7849 -20.20477,41.60769 -4.49921,18.9257 -7.06177,25.66781 -12.77866,33.62066 -7.9785,11.09905 -4.25398,11.22445 17.38393,0.58532 17.32464,-8.51835 24.51223,-14.16951 32.82171,-25.80573 3.44417,-4.82307 7.0787,-9.91367 8.07672,-11.31246 0.99804,-1.39878 0.18817,0.80038 -1.79971,4.88702 -3.95038,8.12117 -4.43585,11.03327 -2.0609,12.36236 1.19962,0.67135 0.5555,1.35645 -2.82812,3.00809 -2.40983,1.17631 -7.27229,4.72471 -10.80545,7.88532 -3.53317,3.16061 -10.30796,8.30439 -15.0551,11.43062 -4.74713,3.12623 -8.87888,6.32963 -9.18166,7.11868 -0.30278,0.78903 0.097,2.35907 0.88842,3.48897 1.40198,2.00161 1.27352,2.04107 -5.00427,1.53715 -5.76679,-0.4629 -7.14052,-0.16811 -13.08607,2.80819 -30.9219,15.47929 -46.544,30.21242 -61.61817,58.11177 -11.89583,22.01684 -19.55864,34.78705 -26.2267,43.70723 -19.73759,26.40391 -26.25384,40.31471 -26.25469,56.0481 -3.7e-4,6.83654 1.79488,11.24985 9.08143,22.32517 20.92794,31.80974 35.28848,64.06064 45.93368,103.15784 9.23738,33.92671 13.71291,57.97301 17.3766,93.36151 1.31465,12.6987 2.75503,23.6787 3.20085,24.4001 1.19481,1.9332 1.83775,64.9789 1.05373,103.3281 -0.44199,21.6192 -2.03839,50.1731 -2.88136,51.5371 -0.3677,0.5949 -0.90523,6.3654 -1.19452,12.8233 -0.28928,6.4578 -1.25764,19.1461 -2.15193,28.1961 -0.89429,9.0499 -2.05856,23.859 -2.5873,32.9089 -0.52873,9.05 -1.42593,18.5371 -1.99378,21.0824 -1.21354,5.4395 -3.18427,31.4916 -3.65634,48.335 -0.28732,10.2515 -0.70054,12.6277 -3.10241,17.8406 -2.38156,5.1689 -2.67774,6.8378 -2.1077,11.8763 0.44394,3.9239 0.19297,7.2061 -0.75902,9.9263 -1.70378,4.8685 -4.2922,37.9127 -3.56367,45.4946 l 0.51521,5.3619 -27.17108,0 c -25.39156,0 -27.13671,-0.1179 -26.64626,-1.7997 z m 117.77621,1.0284 c -0.0573,-0.4242 -0.0218,-2.2755 0.0788,-4.1138 0.10068,-1.8383 -0.60144,-20.581 -1.56021,-41.6505 -1.21418,-26.682 -2.17441,-39.3603 -3.16403,-41.7757 -1.86259,-4.5463 -1.79626,-6.9663 0.21205,-7.7369 1.44625,-0.555 1.59694,-3.7702 1.31862,-28.1341 -0.27695,-24.2446 -0.24941,-47.8161 0.0874,-74.8142 0.0565,-4.5249 0.0519,-26.7194 -0.0103,-49.3208 -0.0941,-34.3161 -0.36651,-41.5845 -1.65179,-44.07 -1.21853,-2.3563 -1.29624,-3.5626 -0.37312,-5.7913 1.16878,-2.8216 1.12974,-3.5773 -1.96861,-38.11 -1.29938,-14.4822 -3.12786,-28.9576 -3.79396,-30.0354 -0.29812,-0.4823 -1.20915,-5.9715 -2.0245,-12.1981 -0.81536,-6.2266 -3.77102,-23.2203 -6.56813,-37.7638 -5.91682,-30.7643 -10.79496,-63.8239 -12.31616,-83.46767 -5.95736,-76.92918 15.28371,-134.55756 73.93091,-200.5793 4.84715,-5.45665 14.54692,-16.13724 21.55506,-23.73463 14.62607,-15.85588 26.47853,-30.22045 33.46939,-40.56314 6.10757,-9.03595 16.63985,-30.37936 18.01017,-36.49726 0.57011,-2.5453 1.33358,-15.966 1.6966,-29.82376 1.31295,-50.12051 -3.1771,-88.74245 -15.1242,-130.09329 -6.32632,-21.89644 -12.59201,-31.79441 -33.68975,-53.21998 -7.65832,-7.77732 -13.68697,-14.14058 -13.39703,-14.14058 0.28995,0 6.28479,4.85363 13.32185,10.78583 18.25366,15.38775 19.08003,14.20758 7.37876,-10.53779 -10.46018,-22.12074 -10.20989,-21.48286 -12.54832,-31.98107 -2.56226,-11.50302 -3.94326,-23.38801 -5.09579,-43.85477 -1.00882,-17.91451 -2.48014,-24.22104 -9.11726,-39.07941 -4.57662,-10.24559 -11.04348,-19.59394 -17.43011,-25.19661 -2.69396,-2.36327 -3.97254,-3.83785 -2.84129,-3.27683 4.58208,2.27235 11.99614,9.96395 16.58122,17.20195 4.55556,7.19137 6.66844,8.9608 8.04347,6.73595 0.78537,-1.27026 -4.61673,-16.35105 -11.45272,-31.97285 -6.71732,-15.35063 -13.68588,-33.5979 -13.68588,-35.83669 0,-0.88481 -1.7137,-5.2606 -3.80822,-9.72395 -3.4551,-7.36267 -3.64581,-8.20607 -2.05682,-9.09532 1.12099,-0.62734 1.78804,-2.34993 1.85317,-4.78556 0.0657,-2.45661 0.56518,-0.88934 1.40924,4.42182 1.59722,10.05048 4.02658,18.65581 7.47592,26.48144 3.31303,7.51639 5.7613,7.86861 10.72253,1.54261 4.29345,-5.47451 6.57026,-7.49756 11.24623,-9.99283 l 3.70293,-1.97602 -0.45477,2.37899 c -0.3258,1.70426 -1.57329,2.7141 -4.39845,3.56054 -4.31444,1.29263 -8.7118,5.83087 -11.04426,11.3981 -2.54654,6.07818 -1.25048,12.61587 5.29482,26.70877 11.25505,24.23363 12.79711,30.68444 15.50217,64.84967 2.46031,31.07396 4.47483,42.61079 9.87189,56.53454 3.67802,9.48886 6.62075,14.42544 8.5991,14.42544 2.02789,0 2.40225,-0.77151 4.66249,-9.60896 2.50907,-9.81041 7.02377,-18.70124 14.45037,-28.45723 12.73161,-16.72492 20.33617,-31.27183 24.18457,-46.26306 3.87882,-15.10973 3.84672,-48.49753 -0.0688,-71.6141 -5.74863,-33.93848 -17.46613,-59.16124 -36.96113,-79.56151 -5.13497,-5.37342 -11.98858,-13.47211 -15.23023,-17.99709 -3.24167,-4.52499 -7.34659,-9.94788 -9.12207,-12.05088 -2.56444,-3.0375 -2.98066,-4.12183 -2.02441,-5.27403 0.89727,-1.08116 0.91338,-2.20225 0.0633,-4.40361 -1.54069,-3.98948 -5.09378,-22.39647 -4.994,-25.8717 0.0441,-1.53541 1.16188,2.59487 2.48398,9.1784 4.384,21.83045 11.09225,33.66275 30.76952,54.27257 11.62864,12.17977 15.89019,15.41397 16.13437,12.24482 0.0575,-0.74636 0.19142,-6.21625 0.29761,-12.15529 0.32857,-18.37856 1.75763,-31.70003 3.47115,-32.35757 1.18625,-0.45521 1.38295,0.0346 0.9083,2.26189 -5.01675,23.54093 -2.48799,47.34184 7.84128,73.80291 8.38588,21.48257 12.48066,39.72419 13.90224,61.93234 1.20005,18.74759 2.92781,20.33873 16.95744,15.61662 10.75681,-3.62056 19.23028,-9.00559 28.06229,-17.83407 6.78836,-6.78563 9.16722,-10.07197 13.07619,-18.06446 9.02456,-18.45214 13.0442,-42.25388 9.59934,-56.84133 -2.01361,-8.52676 -3.39829,-11.29888 -16.13874,-32.30945 -14.26993,-23.53287 -17.5394,-32.25569 -17.25795,-46.04351 l 0.14778,-7.23987 0.72383,8.25092 c 1.2983,14.79934 5.2618,23.23808 23.65696,50.36819 2.68458,3.95936 6.06185,9.54182 7.50502,12.40546 5.20261,10.32336 7.12758,9.60062 10.5735,-3.96987 2.32863,-9.17047 7.46975,-22.82911 8.28575,-22.01311 0.19664,0.19664 -0.41775,2.33119 -1.3653,4.74344 -1.3885,3.53477 -1.48064,4.77372 -0.4748,6.38434 1.05513,1.68952 0.8271,2.55031 -1.4752,5.56879 -2.3976,3.14342 -3.07691,5.99891 -5.68072,23.87898 -5.50712,37.81683 -6.19884,41.8946 -8.28938,48.86728 -2.46234,8.21271 -2.07791,10.61548 2.85992,17.87515 4.39936,6.468 10.17106,10.63067 15.78362,11.38348 3.43309,0.46047 4.10759,0.90058 3.63967,2.37486 -1.57206,4.95312 10.03627,8.72085 18.97258,6.15795 2.71143,-0.77763 3.24304,-0.73023 2.30713,0.20568 -0.66888,0.66888 -1.21614,2.10065 -1.21614,3.18172 0,1.71336 -0.49488,1.87347 -3.85652,1.24774 -12.77146,-2.37727 -25.06319,-8.94838 -34.46347,-18.42404 -8.25378,-8.32 -10.43332,-7.92726 -18.59244,3.35025 -7.28449,10.0686 -26.81394,22.63893 -40.27189,25.92142 -10.88486,2.65488 -12.11248,4.07074 -13.31051,15.35145 -1.84204,17.34473 -11.34107,39.02453 -24.89341,56.81467 -10.19907,13.38831 -14.2631,24.21144 -15.46007,41.17255 -0.79384,11.24901 0.45523,16.47804 8.38553,35.1045 9.7901,22.99468 16.86758,44.59463 21.65547,66.09094 1.64259,7.37477 3.50846,10.37809 5.63216,9.06558 0.61861,-0.38233 2.88634,-4.5081 5.0394,-9.16837 6.65385,-14.40224 20.70523,-27.09154 41.23258,-37.23569 10.10343,-4.99288 11.83958,-7.30034 11.76695,-15.63914 -0.0554,-6.367 -0.93995,-10.44556 -6.72798,-31.02363 -1.28823,-4.58003 -2.48957,-12.93473 -2.95753,-20.56811 -0.64297,-10.48815 -1.26759,-13.89651 -3.3924,-18.5113 -3.4129,-7.41232 -4.67978,-12.22244 -1.87672,-7.12552 4.5291,8.23543 7.34096,7.82702 12.89385,-1.87276 2.18578,-3.8181 7.63057,-10.7006 12.09952,-15.29443 4.46897,-4.59384 8.48877,-9.68445 8.93291,-11.31246 0.69958,-2.56438 1.23808,-2.91744 4.0288,-2.64132 2.08398,0.2062 4.86616,-0.64525 7.88027,-2.41163 2.56243,-1.50169 4.65898,-2.4845 4.65898,-2.18402 0,0.30047 -3.73005,3.43185 -8.28899,6.95861 -8.92646,6.90544 -20.85079,19.71463 -24.98925,26.84361 -5.07076,8.73496 -7.04463,16.83918 -6.66363,27.35915 0.38596,10.65682 1.48916,12.53294 7.36968,12.53294 l 3.0289,0 -2.71126,2.71124 c -3.33808,3.33809 -3.48397,7.08568 -0.5988,15.38196 1.16184,3.34088 3.00582,9.77659 4.09771,14.30157 1.82921,7.58052 3.77346,10.79826 6.52461,10.79826 1.99277,0 34.16865,-14.73333 43.31333,-19.83317 16.984,-9.47171 27.59901,-18.63695 43.8142,-37.83022 17.38994,-20.58368 44.57724,-63.35693 54.43404,-85.63986 2.3268,-5.26023 4.867,-25.214 5.7813,-45.41471 0.6034,-13.32746 0.4909,-14.71918 -1.5059,-18.63328 -2.5758,-5.04892 -13.1016,-14.96633 -24.1077,-22.71417 -4.3836,-3.08587 -7.9702,-5.85675 -7.9702,-6.15753 0,-0.30079 1.2727,0.27878 2.8282,1.28792 1.5554,1.00915 4.6792,3.00717 6.9417,4.44007 2.2625,1.4329 7.1732,5.0569 10.9127,8.05333 9.8951,7.92884 13.42,7.09961 11.0356,-2.59617 -2.7405,-11.14427 -7.7834,-19.80755 -18.2578,-31.36564 -8.2868,-9.1441 -8.0496,-10.29383 0.3129,-1.51724 9.9387,10.43074 13.5796,10.52087 23.9194,0.59206 3.8472,-3.69427 7.677,-8.59949 9.293,-11.90225 2.3398,-4.7824 2.8631,-5.30884 3.5177,-3.53899 0.423,1.14353 1.7664,2.77761 2.9852,3.63131 2.1932,1.53616 2.1814,1.5598 -1.1426,2.28985 -3.6843,0.80923 -21.9307,17.68975 -23.5969,21.83053 -0.6907,1.7167 -0.1557,4.41567 2.0746,10.46431 4.9668,13.47088 6.2934,22.98077 6.1793,44.29884 -0.056,10.46402 -0.074,19.60397 -0.041,20.311 0.033,0.70703 0.9834,1.28551 2.1114,1.28551 1.6214,0 3.8029,-3.49941 10.4181,-16.71159 11.2362,-22.44145 25.4237,-49.24498 31.8655,-60.2014 6.2539,-10.6368 22.4256,-35.18321 23.1796,-35.18321 0.2907,0 -0.3975,1.50405 -1.5295,3.34232 -12.6263,20.50568 -15.6222,26.13109 -15.0834,28.32236 0.4384,1.78271 -0.2084,3.01775 -2.661,5.0815 -3.5629,2.99802 -23.5583,42.41761 -23.5583,46.44371 0,3.63449 2.4359,3.54901 10.1936,-0.3577 11.2575,-5.66921 16.9255,-7.6541 29.8138,-10.44063 6.5295,-1.41173 13.9201,-3.4728 16.4235,-4.58017 4.536,-2.00647 4.5566,-2.00628 5.9993,0.0534 1.0773,1.53823 2.6819,2.093 6.2742,2.1693 11.6779,0.24802 8.2335,1.45759 -4.6351,1.6277 -11.3659,0.15025 -16.188,0.70153 -24.2181,2.76873 -13.3456,3.43563 -27.6629,9.83775 -38.0464,17.0129 -9.3748,6.47799 -9.4028,6.52077 -22.309,34.02205 -8.5154,18.14463 -13.3741,27.93366 -22.5952,45.52314 -5.4888,10.46994 -8.2553,16.82472 -7.8627,18.06144 2.8085,8.84858 22.9572,13.50898 58.6751,13.57152 11.8781,0.0208 25.0584,0.48701 29.2894,1.03603 5.0668,0.65744 8.7555,0.64752 10.8055,-0.029 1.7161,-0.56637 7.4671,-5.46385 12.8183,-10.91586 5.3383,-5.43874 14.2288,-13.78268 19.7568,-18.54209 7.9855,-6.87525 10.3033,-9.496 11.2794,-12.75354 l 1.2283,-4.10008 1.9704,2.11501 c 2.197,2.35817 3.5627,2.16417 11.0647,-1.57177 8.9119,-4.4381 9.6871,-3.68064 1.0565,1.0323 -12.7334,6.95331 -24.8054,16.3649 -37.1624,28.97264 -11.9287,12.17066 -13.7337,14.75078 -12.8321,18.34301 0.7383,2.94164 21.2555,18.66349 29.9699,22.96526 15.475,7.63899 28.5629,9.65605 45.3125,6.98337 6.1558,-0.98225 12.064,-2.04436 13.1295,-2.36025 1.832,-0.54317 1.8458,-0.44415 0.2571,1.8242 -2.6835,3.83118 -2.0033,6.49266 3.1619,12.37083 4.2241,4.80725 3.8633,4.57789 -2.8281,-1.79754 -4.2185,-4.01934 -8.6735,-7.62508 -9.8999,-8.01275 -1.2263,-0.38766 -5.9699,-0.23588 -10.5411,0.3373 -8.4539,1.06004 -21.9399,0.0665 -27.4298,-2.02065 -1.4365,-0.54621 -3.7388,-0.9931 -5.1161,-0.9931 -1.951,0 -2.504,0.54002 -2.504,2.44509 0,1.3448 0.6941,3.0212 1.5426,3.72534 1.9712,1.63598 1.9777,3.08522 0.013,3.08522 -0.8409,0 -2.1783,-1.50405 -2.9721,-3.34232 -3.4682,-8.03125 -27.9944,-27.02469 -39.6433,-30.70031 -6.2858,-1.98342 -9.0423,-2.12528 -39.1567,-2.01533 -35.1055,0.12817 -43.078,-0.67329 -56.3354,-5.66337 -3.6532,-1.37506 -8.1716,-2.50011 -10.0409,-2.50011 -3.8321,0 -3.1708,-0.71777 -16.5803,17.9971 -10.46374,14.60377 -16.58531,22.124 -25.95118,31.88057 -3.80082,3.95936 -7.19512,7.95558 -7.54291,8.88048 -0.88054,2.34173 1.38775,5.16008 6.0522,7.51983 2.17721,1.10145 12.75143,6.74925 23.49826,12.55066 10.83573,5.84934 21.37423,10.8387 23.65783,11.20058 6.0108,0.95247 15.2044,-1.03062 33.9372,-7.32034 9.1379,-3.06815 17.2717,-5.54326 18.075,-5.50023 0.8031,0.043 -0.1593,0.65793 -2.139,1.36644 -2.0846,0.74604 -4.1641,2.44441 -4.9411,4.03539 -1.1459,2.34666 -1.9896,2.74717 -5.7868,2.74717 -5.718,0 -24.3557,5.68903 -26.0511,7.95198 -1.8947,2.52875 0.7992,4.67064 9.5262,7.57412 6.6364,2.20791 8.9667,2.3995 29.8238,2.45187 20.4789,0.0514 23.454,0.28606 31.3663,2.47369 4.8078,1.32927 10.8841,2.35553 13.5027,2.28056 3.9187,-0.1122 4.8539,0.21814 5.2851,1.86701 1.2261,4.68897 15.9867,3.56767 34.1024,-2.59062 5.6162,-1.9092 10.3691,-3.31357 10.5618,-3.12082 0.1929,0.19277 -4.4023,2.3838 -10.2113,4.86899 l -10.5618,4.51851 -12.8551,-0.0454 c -11.0279,-0.039 -14.8284,-0.53423 -26.7385,-3.48461 -12.3696,-3.06415 -15.1731,-3.40739 -25.7102,-3.14752 -33.5969,0.82859 -34.4947,0.7613 -46.7924,-3.50753 -6.2219,-2.15974 -22.6506,-9.58958 -36.50842,-16.51075 -28.9601,-14.46416 -37.40916,-18.03392 -42.683,-18.03392 -2.67112,0 -7.70784,2.07196 -17.3075,7.11979 -7.44698,3.91588 -22.99861,11.608 -34.55917,17.09358 -11.56057,5.48559 -24.85598,12.27478 -29.54536,15.08711 -12.22455,7.33133 -22.12993,16.83477 -25.93016,24.87795 -6.38773,13.51968 -6.56864,15.01464 -6.91885,57.17341 -0.41436,49.88215 -1.749,61.08838 -10.14129,85.15041 -3.28805,9.42734 -3.54787,10.89626 -2.36479,13.36927 1.7828,3.72661 8.02142,5.28358 24.33318,6.07285 11.07546,0.5359 13.19289,0.37418 16.18282,-1.236 3.15572,-1.69947 18.05459,-19.69906 21.91567,-26.47672 0.88407,-1.55188 2.18588,-2.82454 2.89291,-2.82811 1.84051,-0.009 1.62363,0.71584 -1.39955,4.67945 -2.85602,3.74442 -2.69634,6.62651 0.36715,6.62651 2.14194,0 5.42076,-2.04643 10.54515,-6.5816 3.31193,-2.9311 3.27086,-2.82855 -0.5142,1.284 -2.26249,2.45824 -6.89032,6.34178 -10.28405,8.63007 -3.39374,2.2883 -7.2117,5.10057 -8.48435,6.24953 -2.6505,2.39285 -3.10538,7.37711 -0.75557,8.27883 3.43522,1.31822 39.43204,-6.7686 51.76145,-11.6284 10.2972,-4.05878 21.65262,-10.35075 27.5671,-15.27476 7.01884,-5.84343 23.51222,-24.46336 24.86439,-28.07024 0.51156,-1.36457 0.71963,-8.26583 0.46237,-15.33611 -0.43251,-11.88705 -0.22863,-13.77024 2.7074,-25.00833 4.24002,-16.22921 4.17592,-17.55116 -1.09419,-22.56449 -3.96407,-3.77093 -4.04125,-3.94338 -1.07947,-2.41178 4.47624,2.31475 8.01522,2.07841 9.94771,-0.66437 0.89668,-1.27265 2.84459,-6.01617 4.32872,-10.54116 2.1834,-6.65719 2.7174,-10.32007 2.7987,-19.1939 0.056,-6.03166 0.2259,-10.84239 0.3795,-10.6905 0.1535,0.15187 0.8548,2.26417 1.5582,4.69399 1.0716,3.70118 2.2291,5.09103 5.7092,6.85537 0.1912,0.097 -0.6549,1.53222 -1.8801,3.18951 -1.5335,2.07408 -2.6628,6.02584 -3.6234,12.67881 -0.7675,5.31606 -2.8315,16.34138 -4.5868,24.50073 -4.10799,19.09651 -5.13493,32.85802 -2.72633,36.53401 3.88163,5.92406 8.90623,2.67041 32.56793,-21.08927 15.669,-15.73378 17.1702,-17.57092 19.7683,-24.19299 1.5463,-3.94144 2.8115,-7.68376 2.8115,-8.31627 0,-0.63251 0.6942,-1.41639 1.5426,-1.74197 1.9571,-0.751 1.9701,0.44201 0.033,3.00346 -1.9823,2.62096 -1.9837,6.53191 0,7.29218 0.8846,0.33946 7.297,-2.3422 14.6548,-6.12868 17.0704,-8.78617 25.0824,-10.9939 39.8948,-10.9939 l 11.4308,0 6.587,-4.3117 c 7.4958,-4.90665 18.4516,-10.39073 19.221,-9.62136 0.2834,0.28346 -0.3608,0.83723 -1.4315,1.23062 -2.9329,1.07748 -12.9875,8.03592 -15.2467,10.55173 -3.1512,3.50922 -1.2271,6.89085 6.6151,11.62528 10.7389,6.48314 10.3179,7.18568 -0.9931,1.65758 -13.3344,-6.51705 -23.606,-8.81216 -32.5962,-7.28334 -14.7882,2.51477 -34.6561,14.06803 -50.2257,29.20629 -7.978,7.75694 -9.0961,9.25533 -8.1,10.85411 0.8051,1.29224 2.2089,1.78136 4.6278,1.61257 24.3045,-1.69575 41.2279,0.0925 65.7365,6.94592 30.5625,8.54635 57.3132,13.34811 76.1251,13.66443 11.5236,0.19377 12.0348,0.10799 16.3492,-2.74316 3.9253,-2.594 4.5638,-2.74651 5.3814,-1.2855 0.5543,0.99037 2.2526,1.6535 4.2189,1.64731 3.2285,-0.0103 16.7931,-4.50214 29.0013,-9.60387 8.5217,-3.56118 12.2184,-4.41604 11.6439,-2.69268 -0.2479,0.74395 -3.2614,1.92597 -6.6967,2.6267 -10.3412,2.10941 -15.7454,6.01147 -15.7454,11.36877 0,4.90043 14.2598,17.53557 21.7402,19.26322 2.4845,0.57383 4.6809,3.3617 3.5441,4.49848 -0.2607,0.26078 -3.8525,-1.3095 -7.9817,-3.4895 -4.8971,-2.58541 -10.1001,-6.56338 -14.9631,-11.44011 -9.1859,-9.21171 -10.8135,-9.90921 -18.5435,-7.94668 -3.2487,0.82481 -10.9974,2.08713 -17.2192,2.80516 -9.7045,1.11994 -11.3125,1.56751 -11.3125,3.1488 0,1.37686 2.7611,2.96865 10.9117,6.29064 11.1223,4.5332 23.8787,10.89561 23.202,11.57229 -0.206,0.20604 -3.8009,-1.18499 -7.9885,-3.09116 -10.5924,-4.8216 -20.894,-8.25632 -42.3768,-14.12914 -22.4683,-6.14228 -28.4813,-6.4881 -25.6769,-1.47672 1.5943,2.84874 14.1089,12.80582 20.1793,16.05531 5.5097,2.94933 5.8792,3.35988 4.3767,4.86244 -1.5026,1.50255 -1.9673,1.33155 -5.5036,-2.02536 -2.1243,-2.01656 -7.3333,-6.26685 -11.5755,-9.44506 -4.2421,-3.17823 -9.7955,-7.45592 -12.3408,-9.506 -7.2125,-5.80918 -12.7915,-8.14485 -27.767,-11.62459 -43.1801,-10.03353 -67.0083,-8.10643 -93.8184,7.58758 -13.6835,8.01001 -36.78906,31.92257 -36.78906,38.07398 0,2.69041 4.29899,6.69539 10.67848,9.94816 5.39758,2.75212 22.45328,14.38715 32.77678,22.35966 7.9801,6.16275 15.2567,9.28753 21.7781,9.35216 2.6412,0.0262 2.8622,0.20214 1.3559,1.07951 -3.3964,1.97821 -2.0608,4.82934 4.1136,8.78146 24.0467,15.39183 38.561,20.96658 56.6235,21.74841 9.6592,0.41809 11.2281,0.70335 9.2557,1.68292 -4.8201,2.39368 -3.6522,5.08571 7.0659,16.28715 5.5528,5.80304 12.0633,12.49099 14.4679,14.86209 4.1221,4.06445 5.4388,6.48716 3.5256,6.48716 -0.4655,0 -2.6869,-2.26243 -4.9363,-5.02762 -2.2494,-2.76518 -7.5375,-8.12832 -11.7514,-11.91806 -4.2139,-3.78976 -10.7323,-10.08881 -14.4853,-13.9979 -5.8591,-6.10271 -7.326,-7.10742 -10.3767,-7.10742 -6.8931,0 -19.6877,-4.16303 -33.3135,-10.83937 -17.4002,-8.52567 -18.5721,-8.16296 -12.228,3.78445 7.3772,13.89287 11.1909,27.14601 12.4394,43.22807 0.3883,5.00234 1.6295,11.0096 2.985,14.44802 2.2149,5.61813 2.2345,5.9128 0.43,6.4855 -1.176,0.37324 -2.1592,2.03318 -2.6018,4.39261 -0.6213,3.31169 0.5721,18.33849 2.1806,27.45779 0.4571,2.59201 0.2984,2.45295 -0.9927,-0.86992 -1.9977,-5.14118 -3.6329,-18.3884 -3.6339,-29.44106 0,-10.53468 -1.7359,-29.91325 -3.1525,-35.21582 -0.5617,-2.10235 -1.7846,-4.24962 -2.7174,-4.7717 -1.1117,-0.62214 -1.8276,-2.67161 -2.0776,-5.94739 -1.2009,-15.73615 -21.7793,-39.7842 -50.1566,-58.61304 -10.0724,-6.68326 -28.51712,-17.2178 -32.00185,-18.27763 -3.02468,-0.91991 -6.91728,0.76721 -12.55394,5.44109 -21.01424,17.42491 -61.98223,31.35674 -101.77174,34.60915 -8.63182,0.70557 -11.53272,2.05461 -11.53272,5.36318 0,0.91033 2.49352,5.38939 5.54116,9.9535 8.99193,13.46618 10.99224,18.23032 11.95252,28.46727 0.87118,9.28721 1.17963,10.3416 3.97556,13.58996 1.60434,1.86394 2.39527,10.19811 0.87902,9.26244 -2.88613,-1.78101 -7.93561,-16.87073 -7.96063,-23.78932 -0.0142,-3.92047 -4.66197,-13.47336 -8.48137,-17.43227 -3.60318,-3.7348 -6.81854,-4.25476 -9.30701,-1.50503 -4.62429,5.10977 -10.99031,26.77414 -10.99434,37.4151 -0.003,7.18405 -0.63073,10.11107 -2.16943,10.11107 -2.83249,0 2.58689,-34.13497 7.28028,-45.85614 4.06156,-10.14326 4.06941,-14.68824 0.0333,-19.2851 -3.82881,-4.36077 -5.98292,-5.16498 -19.83819,-7.40635 -8.2249,-1.33054 -11.71264,-1.51157 -13.49303,-0.70037 -1.32055,0.60168 -6.9415,6.99635 -12.49098,14.21038 -9.25346,12.02898 -15.98712,20.13428 -30.67786,36.92686 -15.02239,17.17169 -33.54406,41.56949 -33.54406,44.18616 0,3.5661 2.77121,4.73763 15.9429,6.73988 15.51772,2.35886 37.79462,7.8693 50.05829,12.38246 4.70702,1.73224 15.04821,6.35649 22.98042,10.27614 17.61904,8.70629 22.87548,9.65348 49.68525,8.95312 19.45177,-0.50816 26.13844,-1.87719 37.67425,-7.71345 11.91226,-6.02673 35.41996,-33.64842 35.52616,-41.74349 0.008,-0.66014 0.40943,-1.82138 0.89058,-2.58054 0.71056,-1.12111 1.26373,-1.13743 2.94584,-0.0869 1.8211,1.1373 2.67437,0.80748 7.07142,-2.73333 l 5.00043,-4.02668 -3.36912,4.11362 c -4.35445,5.31668 -14.84441,20.64732 -17.02942,24.88776 -3.75818,7.2935 -1.10164,9.24518 14.44053,10.60907 8.61828,0.75629 12.48787,0.6729 16.44836,-0.35443 4.95578,-1.28552 5.27027,-1.24074 7.30152,1.03971 l 2.12267,2.3831 -5.83551,0.0113 c -9.23294,0.0179 -13.75088,1.05444 -14.3352,3.28889 -0.35102,1.3423 -1.03559,1.73456 -2.17662,1.24725 -7.09418,-3.02974 -10.52076,-3.6725 -17.83859,-3.34613 l -7.9468,0.35441 -6.45088,6.23184 c -8.21026,7.93147 -11.88233,10.57727 -21.17486,15.25692 -6.79363,3.42121 -7.48384,4.04889 -7.1936,6.54183 0.27859,2.39272 1.54554,3.30053 9.57671,6.86204 7.9325,3.51777 10.65231,4.1955 19.0255,4.74087 5.37342,0.34998 8.82115,0.71261 7.66162,0.80586 -2.80025,0.22517 -4.5764,2.12504 -4.5764,4.89519 l 0,2.25749 -5.91333,-1.80377 c -10.71672,-3.26896 -12.20654,-3.31916 -15.52927,-0.52326 l -3.00943,2.53226 -1.53012,-2.33527 c -1.75041,-2.67146 -4.50785,-4.15617 -18.48692,-9.954 -11.24289,-4.66301 -15.24468,-5.11694 -18.28724,-2.07439 -2.47274,2.47274 -2.23984,3.04755 5.23699,12.92583 6.69417,8.84422 12.47653,20.44542 15.33055,30.75784 9.02147,32.59727 16.03026,48.13608 26.64005,59.06226 9.26091,9.53712 14.33675,10.4995 23.16325,4.39201 5.77782,-3.99803 7.92725,-7.36592 8.13552,-12.74719 l 0.18028,-4.65804 1.78957,2.94271 c 1.07743,1.7717 2.67008,2.94272 4.00222,2.94272 1.31571,0 6.44949,-3.70934 12.66451,-9.15055 l 10.45185,-9.15057 0,3.41846 c 0,3.04009 -0.36868,3.48763 -3.33084,4.04334 -2.2348,0.41925 -6.31253,3.36758 -12.39228,8.95998 -4.9838,4.58432 -11.83815,10.4001 -15.23189,12.92391 -5.91883,4.40168 -7.6631,6.13537 -7.6973,7.65041 -0.12239,5.42393 27.23965,9.18023 47.49058,6.51953 11.03712,-1.4502 11.69893,-1.4321 13.49993,0.369 1.83958,1.8395 1.78088,1.9113 -2.04632,2.5015 -20.67261,3.1876 -51.9935,3.264 -63.58775,0.155 -9.12524,-2.447 -20.75518,-9.1041 -27.93505,-15.99035 -6.86239,-6.58169 -6.80177,-6.5493 -9.53451,-5.0868 -1.63096,0.87291 -1.93326,0.41671 -2.50935,-3.78634 -0.36188,-2.6402 -3.38518,-10.33282 -6.75581,-17.18979 -3.35544,-6.82612 -8.25835,-17.7331 -10.89535,-24.23776 -6.81629,-16.81371 -9.98677,-21.89491 -20.36044,-32.6309 -18.91108,-19.57157 -43.2546,-31.26757 -79.07081,-37.99009 -7.37905,-1.38501 -15.28882,-1.80097 -34.91493,-1.83613 -28.91743,-0.0518 -29.13406,0.005 -33.427,8.75806 -2.77278,5.65357 -7.8779,23.94964 -10.31302,36.96052 -2.65019,14.16 -2.37274,48.45469 0.5604,69.27041 2.79047,19.80317 4.34728,21.83367 10.56027,13.77337 1.85297,-2.4039 5.7676,-6.9367 8.69919,-10.07282 5.91066,-6.32315 9.15978,-11.96311 10.255,-17.80115 l 0.72561,-3.86785 1.97133,2.11597 c 1.08423,1.16378 2.38062,2.11596 2.88089,2.11596 1.19613,0 9.22599,-6.0908 17.31586,-13.13442 7.09872,-6.18066 13.41471,-14.77392 17.27604,-23.50508 1.37016,-3.09818 2.90716,-5.37596 3.41556,-5.06175 1.09386,0.67604 -9.05959,20.65711 -13.87439,27.30358 -1.84387,2.5453 -4.77993,5.98705 -6.52458,7.64834 -3.48752,3.32087 -3.89673,4.86769 -1.75741,6.64317 1.06968,0.88775 4.4019,0.68675 13.66329,-0.82421 14.85953,-2.42426 17.25478,-3.44089 20.35471,-8.63924 2.24834,-3.77032 2.4886,-3.90681 3.51173,-1.99509 1.83562,3.4299 4.80734,3.34393 12.54206,-0.36284 8.60877,-4.12564 9.43786,-4.236 9.00386,-1.19847 -0.24664,1.72629 -1.22653,2.45787 -3.92804,2.93266 -3.86578,0.67942 -22.27228,9.39997 -24.46164,11.58933 -1.68939,1.68938 -0.63043,4.50562 2.00922,5.34341 4.4418,1.40977 0.83027,1.37185 -6.054,-0.0636 -7.90843,-1.64895 -11.26575,-1.30011 -24.45319,2.54085 -3.95756,1.15268 -7.34666,2.09578 -7.53134,2.09578 -0.18469,0 -0.18616,0.68132 -0.003,1.51404 0.18287,0.83273 3.08237,3.72511 6.44332,6.42756 3.95268,3.17818 8.59362,8.54553 13.14094,15.19757 8.43753,12.3428 11.59271,15.8653 15.3998,17.1924 2.3714,0.8268 2.76627,1.4348 2.25487,3.4725 -1.33203,5.3071 10.00289,12.3664 21.59476,13.4488 6.81816,0.6367 9.87689,1.7199 8.56395,3.0329 -1.38552,1.3855 -13.36374,-1.5759 -20.95431,-5.1807 -5.40074,-2.5648 -9.17943,-5.3283 -13.39862,-9.799 -3.84573,-4.0749 -6.68613,-6.2266 -8.21939,-6.2266 -1.73154,0 -2.49227,-0.738 -2.91528,-2.8282 -1.13818,-5.6238 -6.27668,-14.0592 -12.32189,-20.22764 -7.17735,-7.32369 -12.59422,-10.29979 -16.98969,-9.33432 -5.85498,1.28591 -18.4903,18.75656 -18.4903,25.56616 0,3.0464 1.63421,3.7387 8.82556,3.7387 4.82105,0 5.57212,0.2678 5.57212,1.9868 0,1.0928 1.4383,3.011 3.1962,4.2627 l 3.19622,2.2759 -3.19622,1.3439 c -1.7579,0.7392 -3.1962,1.8291 -3.1962,2.4219 0,2.1404 -1.58442,1.0111 -2.96843,-2.1157 -1.63784,-3.7001 -6.49874,-6.1294 -10.66948,-5.3321 -4.98712,0.9534 -9.99085,9.1452 -10.00968,16.3874 -0.003,1.2128 2.27511,12.0881 5.06281,24.1675 2.78771,12.0792 6.30604,27.9785 7.81852,35.3316 1.51247,7.3531 3.44631,14.4699 4.29741,15.8153 1.04323,1.6491 1.34418,3.7172 0.92364,6.3471 -0.61255,3.8307 3.89175,38.2273 5.30071,40.4781 0.3858,0.6164 0.76284,4.1287 0.83785,7.8052 0.075,3.6766 0.7044,13.6264 1.39863,22.1108 2.43412,29.7478 5.13824,90.8481 5.64377,127.5222 0.63734,46.2385 1.2794,67.0061 2.11328,68.3553 0.35617,0.5763 0.82623,9.4968 1.04457,19.8233 0.21835,10.3266 0.87249,22.4779 1.45364,27.0029 0.58115,4.5249 1.78508,15.8631 2.67539,25.1959 0.89031,9.3328 2.0659,17.7786 2.61242,18.7684 0.93516,1.6938 -0.61155,1.7997 -26.26778,1.7997 -14.99381,0 -27.30835,-0.3471 -27.36566,-0.7713 z M 805.57252,985.41607 c -1.83887,-0.72036 -1.85133,-0.82628 -0.17299,-1.47032 2.75789,-1.05831 3.69722,-0.84271 3.69722,0.84857 0,1.68992 -0.54995,1.787 -3.52423,0.62175 z M 938.75703,962.2551 c -0.0446,-1.08411 0.19841,-1.69151 0.54014,-1.34979 0.34173,0.34173 0.37826,1.22874 0.0811,1.97112 -0.32829,0.82039 -0.57198,0.57671 -0.62132,-0.62133 z m 60.08057,-19.1112 c 0.3495,-0.56562 1.0983,-1.02841 1.6639,-1.02841 0.5656,0 0.7424,0.46279 0.3929,1.02841 -0.3496,0.56562 -1.0984,1.0284 -1.664,1.0284 -0.5656,0 -0.7424,-0.46278 -0.3928,-1.0284 z M 138.22291,910.02273 c -0.32635,-1.24795 -0.49601,-2.28921 -0.37705,-2.31391 0.11898,-0.0247 1.78304,-0.86923 3.69792,-1.87673 1.91489,-1.0075 3.63807,-1.67537 3.82929,-1.48415 0.55868,0.55869 -4.72687,7.94379 -5.68542,7.94379 -0.47925,0 -1.13839,-1.02105 -1.46474,-2.269 z m 934.22679,-10.50037 c -0.044,-1.0841 0.1985,-1.69151 0.5402,-1.34978 0.3417,0.34173 0.3783,1.22874 0.081,1.97112 -0.3283,0.82038 -0.572,0.5767 -0.6214,-0.62134 z m -130.68865,-8.20291 c 0,-0.2223 0.69418,-0.67055 1.54261,-0.99613 0.84844,-0.32558 1.54261,-0.14369 1.54261,0.40417 0,0.54787 -0.69417,0.99614 -1.54261,0.99614 -0.84843,0 -1.54261,-0.18189 -1.54261,-0.40418 z m 157.86025,-8.85147 c -0.3496,-0.56563 0.059,-1.02841 0.907,-1.02841 0.8485,0 1.8286,0.46278 2.1782,1.02841 0.3495,0.56562 -0.059,1.0284 -0.9071,1.0284 -0.8484,0 -1.8286,-0.46278 -2.1781,-1.0284 z m -18.6992,-12.08245 -0.1832,-4.73034 3.5207,3.95722 c 1.9363,2.17648 3.4081,4.04175 3.2706,4.14505 -0.1374,0.10331 -1.6393,0.45121 -3.3375,0.77311 -3.0498,0.57812 -3.0898,0.52739 -3.2706,-4.14504 z M 497.20241,854.35981 c -1.14592,-2.91354 -0.95911,-4.40195 0.38392,-3.05892 0.61867,0.61867 0.95208,1.98388 0.74093,3.0338 -0.37031,1.84118 -0.41023,1.84207 -1.12485,0.0251 z m -221.8481,-5.31501 c 0,-1.06148 1.04243,-1.53241 3.34232,-1.50991 3.16152,0.031 3.23433,0.11439 1.34605,1.54261 -2.57087,1.94452 -4.68837,1.92974 -4.68837,-0.0327 z m -172.25792,-1.54261 c -0.34957,-0.56562 -0.1455,-1.02841 0.45351,-1.02841 0.599,0 1.0891,0.46279 1.0891,1.02841 0,0.56562 -0.20408,1.02841 -0.45351,1.02841 -0.24943,0 -0.73952,-0.46279 -1.0891,-1.02841 z m 976.33971,-25.3643 c -1.2797,-1.55146 -1.1956,-1.59603 0.9026,-0.47803 2.3931,1.27513 2.9822,2.189 1.4114,2.189 -0.4964,0 -1.5376,-0.76993 -2.314,-1.71097 z M 435.95064,799.63295 c -1.56638,-3.43783 -1.50801,-4.63558 0.19406,-3.98244 0.76315,0.29285 1.42637,1.89807 1.47382,3.56715 0.1055,3.71063 -0.13872,3.77144 -1.66788,0.41529 z M 1155.0496,749.2897 c 1.965,-1.48743 3.705,-1.21756 3.705,0.57467 0,0.53224 -1.2727,0.95299 -2.8281,0.935 -2.6796,-0.0309 -2.7257,-0.11024 -0.8769,-1.50967 z m 77.5093,-70.50066 -3.3585,-3.13986 4.3707,2.13236 c 2.4039,1.1728 4.3707,2.58574 4.3707,3.13986 0,1.83345 -1.9798,1.04919 -5.3829,-2.13236 z m 43.9554,-0.96198 c -0.3603,-0.58296 0.053,-0.75536 0.9677,-0.40417 1.7817,0.68367 2.1076,1.4208 0.6283,1.4208 -0.5322,0 -1.2504,-0.45748 -1.596,-1.01663 z M 115.95146,645.48121 c 0,-0.24943 0.46278,-0.73952 1.02841,-1.0891 0.56562,-0.34958 1.0284,-0.1455 1.0284,0.45351 0,0.599 -0.46278,1.0891 -1.0284,1.0891 -0.56563,0 -1.02841,-0.20408 -1.02841,-0.45351 z m 1147.70044,-19.0862 c 2.0261,-1.30935 4.4087,-1.30935 3.5995,0 -0.3496,0.56563 -1.6496,1.02132 -2.8888,1.01266 -1.8319,-0.0128 -1.9648,-0.20218 -0.7107,-1.01266 z m -879.54371,-28.6668 c -1.12018,-5.04083 -1.00897,-6.94801 0.32726,-5.61178 0.60421,0.60421 0.95129,2.89498 0.7713,5.09061 l -0.32726,3.99204 -0.7713,-3.47087 z m -86.05667,-1.84415 c -0.0398,-0.66077 -0.35319,-1.93342 -0.69652,-2.82811 -0.40963,-1.06747 -0.056,-1.62672 1.0284,-1.62672 1.82894,0 1.92729,0.56706 0.62424,3.59942 -0.48612,1.13124 -0.91638,1.51618 -0.95612,0.85541 z m 670.96228,-7.54005 c -0.34958,-0.56562 -0.1728,-1.0284 0.39282,-1.0284 0.56562,0 1.31441,0.46278 1.66399,1.0284 0.34957,0.56562 0.1728,1.02841 -0.39282,1.02841 -0.56562,0 -1.31442,-0.46279 -1.66399,-1.02841 z M 337.05864,562.11967 c 0,-1.53305 0.44283,-2.41871 1.0284,-2.05681 0.56563,0.34958 1.02841,1.27514 1.02841,2.05681 0,0.78167 -0.46278,1.70724 -1.02841,2.05681 -0.58557,0.36191 -1.0284,-0.52375 -1.0284,-2.05681 z m 250.57435,-23.71891 c -3.33324,-3.89776 -3.74873,-4.87571 -2.63939,-6.21238 1.15503,-1.39173 1.49867,-1.23892 2.80026,1.24526 1.81438,3.46288 4.43734,9.67303 4.06603,9.62681 -0.14899,-0.0185 -2.0511,-2.11542 -4.2269,-4.65969 z m 579.91451,-15.77913 c 0.5373,-0.51306 2.7081,-1.40012 4.8239,-1.97126 3.6149,-0.97583 3.7833,-0.91959 2.7919,0.93284 -0.7451,1.39223 -2.162,1.97126 -4.8239,1.97126 -2.2876,0 -3.3849,-0.36663 -2.7919,-0.93284 z m -467.22307,-3.18078 c 1.45146,-2.32415 1.73483,-2.40323 3.84012,-1.07171 1.20708,0.76344 0.93738,1.17047 -1.35246,2.04106 -3.83963,1.45983 -3.9724,1.40809 -2.48766,-0.96935 z m 381.81397,-26.21756 c 5.7042,-2.37957 6.2667,-2.44388 7.4453,-0.85128 0.7012,0.94751 1.164,1.80896 1.0284,1.91432 -0.1355,0.10536 -3.486,0.48843 -7.4453,0.85127 l -7.1989,0.65972 6.1705,-2.57403 z M 212.62158,492.7023 c 0,-0.56562 0.46278,-1.0284 1.0284,-1.0284 0.56562,0 1.02841,0.46278 1.02841,1.0284 0,0.56563 -0.46279,1.02841 -1.02841,1.02841 -0.56562,0 -1.0284,-0.46278 -1.0284,-1.02841 z m 968.75792,-8.22724 c -1.3183,-0.85196 -1.2809,-0.9992 0.2571,-1.01266 0.9898,-0.008 1.7997,0.44704 1.7997,1.01266 0,1.25425 -0.116,1.25425 -2.0568,0 z m 55.9875,-3.67575 c -1.9267,-1.56253 -1.9066,-1.59885 0.5748,-1.04244 1.4141,0.31707 3.1769,0.58281 3.9172,0.59053 0.7405,0.008 1.0602,0.47682 0.7106,1.04244 -0.921,1.49025 -2.916,1.26379 -5.2026,-0.59053 z m -597.4478,-5.3228 c 0.40119,-0.98984 1.19015,-3.07236 1.75325,-4.62782 0.991,-2.73747 2.87942,-3.90786 2.87942,-1.78459 0,0.57393 1.50405,1.96055 3.34232,3.08137 3.2313,1.97016 3.25692,2.03818 0.7713,2.04802 -1.41405,0.005 -3.89656,0.70151 -5.51668,1.54646 -3.75805,1.95995 -4.11882,1.93053 -3.22961,-0.26344 z m 24.33576,-6.02996 c 2.16365,-2.16365 3.06135,-2.47672 4.60445,-1.60576 1.71884,0.97014 1.52195,1.2477 -1.90669,2.68764 -5.2999,2.22582 -5.8035,2.02386 -2.69776,-1.08188 z m -59.77445,-8.17116 c 0.0649,-1.72452 2.9757,-6.18626 2.97962,-4.56728 0.002,0.84844 -0.67573,2.44093 -1.50617,3.53888 -0.83044,1.09795 -1.4935,1.56073 -1.47345,1.0284 z M 53.475828,459.28054 c -0.707029,-0.80146 -1.285507,-1.66565 -1.285507,-1.92041 0,-0.58285 12.583192,-4.86612 13.018026,-4.43128 0.276828,0.27682 -8.521715,7.00346 -9.932809,7.5938 -0.282812,0.11832 -1.092681,-0.44063 -1.79971,-1.24211 z M 737.9174,449.50927 c -0.5683,-3.8721 0.34367,-3.87811 4.57387,-0.0301 l 3.35854,3.05506 -3.73979,0.0301 c -3.37771,0.0272 -3.78364,-0.26858 -4.19262,-3.05508 z m 495.1239,-3.29557 c 0.7077,-2.12308 3.7003,-3.45805 4.9501,-2.20821 0.8272,0.82723 0.2569,1.44063 -2.1053,2.26407 -2.4215,0.84415 -3.1401,0.83003 -2.8448,-0.0558 z M 467.66613,431.57287 c 0,-0.88181 0.46278,-1.6033 1.02841,-1.6033 0.56562,0 1.0284,0.43547 1.0284,0.96771 0,0.53224 -0.46278,1.25373 -1.0284,1.6033 -0.56563,0.34958 -1.02841,-0.0859 -1.02841,-0.96771 z m 386.26282,-30.90981 c -1.64196,-2.50594 -1.47603,-4.63087 0.36161,-4.63087 0.76803,0 2.22325,6.27977 1.61605,6.97383 -0.13916,0.15906 -1.0291,-0.89528 -1.97766,-2.34296 z M 56.910543,395.10588 c -1.286487,-1.42155 -1.438853,-2.15875 -0.558614,-2.70277 1.262232,-0.7801 2.994298,1.15288 3.021482,3.37198 0.02127,1.73634 -0.386036,1.62566 -2.462868,-0.66921 z M 913.99411,383.22624 c 0,-0.72304 14.04359,-7.76216 15.48611,-7.76216 3.072,0 -0.3366,2.68375 -5.27452,4.15289 -3.07108,0.91369 -6.62503,2.2205 -7.89768,2.904 -1.27265,0.6835 -2.31391,1.00086 -2.31391,0.70527 z m 303.10299,-11.52195 c 0.6962,-0.2817 2.0845,-0.29884 3.0852,-0.0382 1.0005,0.26074 0.4309,0.49123 -1.266,0.51218 -1.6969,0.021 -2.5156,-0.19237 -1.8192,-0.47408 z m -275.1006,-1.57436 c 0.51243,-1.53731 2.84977,-2.38373 2.84977,-1.03201 0,0.55224 -0.73284,1.28529 -1.62854,1.62901 -1.00158,0.38434 -1.47173,0.1545 -1.22123,-0.597 z m 216.3989,-10.57319 c -0.3187,-0.83033 -0.1368,-1.78321 0.4041,-2.11751 0.541,-0.33432 0.9835,0.34504 0.9835,1.50967 0,2.48315 -0.5719,2.73366 -1.3876,0.60784 z M 105.7486,341.09819 c -0.0446,-1.0841 0.1984,-1.69151 0.54014,-1.34978 0.34173,0.34173 0.37826,1.22873 0.0811,1.97112 -0.32829,0.82039 -0.57198,0.5767 -0.62132,-0.62134 z m -54.072482,-4.71352 c -0.349574,-0.56562 -0.145494,-1.0284 0.45351,-1.0284 0.599004,0 1.089099,0.46278 1.089099,1.0284 0,0.56563 -0.204079,1.02841 -0.45351,1.02841 -0.24943,0 -0.739524,-0.46278 -1.089099,-1.02841 z M 1199.3351,315.29294 c -1.9273,-1.51077 -1.8806,-1.56752 1.0699,-1.29937 1.6969,0.15421 2.9695,0.74317 2.8281,1.30879 -0.4189,1.67569 -1.7526,1.67248 -3.898,-0.009 z m 27.2942,-4.6184 c 0,-0.56563 0.4628,-1.02841 1.0285,-1.02841 0.5656,0 1.0284,0.46278 1.0284,1.02841 0,0.56562 -0.4628,1.0284 -1.0284,1.0284 -0.5657,0 -1.0285,-0.46278 -1.0285,-1.0284 z m -277.68895,-2.54748 c 1.48104,-1.78453 2.07635,-1.97026 2.07635,-0.64777 0,0.50511 -0.75963,1.20988 -1.68806,1.56615 -1.41147,0.54163 -1.47509,0.39114 -0.38829,-0.91838 z m 224.21195,-7.22238 -4.6279,-2.47807 3.7724,-0.0465 c 2.0748,-0.0256 4.4273,-0.29777 5.2277,-0.60493 1.0585,-0.40612 1.4554,0.2952 1.4554,2.57102 0,3.71585 0.059,3.71026 -5.8276,0.55845 z m -477.90083,-3.70845 c -3.28902,-0.95117 -5.12685,-2.61349 -4.06422,-3.67611 0.54909,-0.5491 7.87011,3.52831 7.87011,4.38322 0,0.23668 -0.11569,0.3886 -0.2571,0.33758 -0.1414,-0.051 -1.73836,-0.52113 -3.54879,-1.04469 z M 539.8052,266.9673 c -1.42567,-5.02275 -1.44776,-5.65623 -0.19728,-5.65623 1.13551,0 2.54019,6.44102 1.83825,8.42915 -0.26034,0.73739 -0.99877,-0.51042 -1.64097,-2.77292 z M 119.78183,238.0601 c -1.41185,-1.41185 -0.73946,-2.45912 1.56876,-2.44342 2.23829,0.0152 6.44744,1.97921 4.37072,2.03936 -0.56562,0.0164 -1.96573,0.28166 -3.11137,0.5895 -1.14562,0.30785 -2.41827,0.22439 -2.82811,-0.18544 z m 215.22,-2.97337 c 0,-0.84843 0.44826,-1.5426 0.99613,-1.5426 0.54786,0 0.72975,0.69417 0.40417,1.5426 -0.32558,0.84844 -0.77383,1.54261 -0.99613,1.54261 -0.22229,0 -0.40417,-0.69417 -0.40417,-1.54261 z m 731.19627,-3.47947 c 0,-0.49965 0.9256,-1.1505 2.0568,-1.44633 1.3369,-0.34958 2.0568,-0.0316 2.0568,0.90846 0,0.79548 -0.9255,1.44633 -2.0568,1.44633 -1.1312,0 -2.0568,-0.40881 -2.0568,-0.90846 z m -60.4008,-1.3806 c -1.2222,-1.53037 -4.3887,-7.63317 -4.3887,-8.45813 0,-0.31089 0.6393,-0.56527 1.4207,-0.56527 0.7826,0 2.1396,2.18393 3.0216,4.86284 1.6887,5.12961 1.6734,6.32312 -0.053,4.16056 z M 443.67001,216.40403 c -1.06684,-1.06684 -0.80611,-4.45642 0.3428,-4.45642 0.56562,0 1.0284,1.15696 1.0284,2.57101 0,2.69243 -0.23755,3.01906 -1.3712,1.88541 z M 168.8538,206.32408 c -1.09794,-0.83043 -3.26892,-1.52461 -4.82438,-1.5426 -3.14565,-0.0364 -3.61803,-1.18211 -1.28551,-3.11792 0.84844,-0.70414 1.54261,-2.01693 1.54261,-2.91731 0,-1.43216 0.17322,-1.44858 1.38403,-0.13119 1.66477,1.81133 6.14924,9.21893 5.58104,9.21893 -0.22084,0 -1.29984,-0.67946 -2.39779,-1.50991 z m 883.975,-4.66052 c 0,-4.04997 0.3531,-5.14203 1.6626,-5.14203 1.2222,0 1.4984,0.61279 1.0425,2.31391 -0.3412,1.27265 -0.6264,3.58656 -0.6342,5.14203 -0.01,1.55546 -0.4768,2.82811 -1.0425,2.82811 -0.5656,0 -1.0284,-2.31391 -1.0284,-5.14202 z m -782.01701,-0.89039 c -0.443,-0.7168 -0.52774,-1.581 -0.18829,-1.92045 0.92039,-0.92038 1.92391,0.43327 1.4268,1.92461 -0.34834,1.04503 -0.59058,1.04422 -1.23851,-0.004 z m 856.02541,-6.13943 c 0.6775,-1.32109 1.5139,-2.11995 1.8586,-1.77523 0.3448,0.34472 -0.2096,1.42562 -1.2318,2.402 -1.7769,1.69709 -1.8044,1.66951 -0.6268,-0.62677 z M 125.64624,192.94419 c -1.73993,-1.31633 -1.76955,-1.50326 -0.24273,-1.53199 0.95646,-0.018 2.04406,0.46087 2.4169,1.06413 1.12027,1.81264 -0.0607,2.06678 -2.17417,0.46786 z m 932.36106,-2.26669 c 0.02,-0.46234 0.6564,-1.95953 1.414,-3.32711 l 1.3777,-2.48651 1.2402,2.31748 c 0.6822,1.27462 1.0872,2.45175 0.8999,2.61586 -1.0168,0.89122 -4.9628,1.59554 -4.9318,0.88028 z M 152.05159,176.07974 c -1.11739,-2.02845 -1.10973,-2.59293 0.0449,-3.31524 1.53199,-0.9583 2.32072,0.90184 1.67921,3.96022 -0.3201,1.52608 -0.58225,1.42802 -1.72419,-0.64498 z m 767.10741,1.35159 c 0.0427,-1.79985 3.78409,-5.86515 5.019,-5.45352 0.73751,0.24584 -0.0247,1.61048 -1.90656,3.41341 -1.72442,1.6521 -3.12501,2.57015 -3.11244,2.04011 z M 225.29271,146.06356 c 0.36853,-1.3777 0.67638,-3.00324 0.6841,-3.61231 0.008,-0.64304 1.30334,-0.91816 3.08876,-0.65612 3.5101,0.51518 3.30914,1.2534 -1.2189,4.47765 l -3.22401,2.29569 0.67005,-2.50491 z m 260.88555,1.07613 c 4.7e-4,-0.2727 0.88788,-2.80974 1.97203,-5.63785 1.44429,-3.76754 2.15368,-4.6793 2.65388,-3.41094 0.41982,1.06455 -0.33951,3.2354 -1.97202,5.63787 -1.4601,2.14872 -2.65434,3.68363 -2.65389,3.41092 z m -25.05446,-5.63785 c -0.32558,-0.84844 -0.43175,-1.54261 -0.23595,-1.54261 0.1958,0 0.93212,0.69417 1.63626,1.54261 0.73793,0.88914 0.83788,1.5426 0.23594,1.5426 -0.57436,0 -1.31067,-0.69417 -1.63625,-1.5426 z m 336.28859,-3.08522 c -0.32558,-0.84844 -0.14369,-1.54261 0.40417,-1.54261 0.54787,0 0.99613,0.69417 0.99613,1.54261 0,0.84843 -0.18188,1.54261 -0.40417,1.54261 -0.2223,0 -0.67055,-0.69418 -0.99613,-1.54261 z m -49.76063,-5.14203 c -0.0114,-2.26249 0.18986,-3.30915 0.44726,-2.3259 0.2574,0.98325 0.26673,2.83438 0.0208,4.11362 -0.24598,1.27924 -0.45659,0.47477 -0.46801,-1.78772 z M 307.8254,132.07422 c -0.36188,-0.94302 -0.17999,-2.19253 0.40417,-2.7767 0.73055,-0.73055 1.06212,-0.19531 1.06212,1.71458 0,3.17248 -0.51369,3.54457 -1.46629,1.06212 z m 438.61981,-8.99799 c -0.0446,-1.0841 0.19841,-1.69151 0.54014,-1.34978 0.34173,0.34173 0.37825,1.22873 0.0811,1.97112 -0.32829,0.82039 -0.57198,0.57671 -0.62132,-0.62134 z m -80.29682,-11.85166 c 0,-1.16463 0.46278,-2.11751 1.0284,-2.11751 0.56563,0 1.02841,0.66686 1.02841,1.48192 0,0.81505 -0.46278,1.76793 -1.02841,2.1175 -0.56562,0.34958 -1.0284,-0.31728 -1.0284,-1.48191 z m -81.24403,-0.5142 c 0,-0.24943 0.46278,-0.73953 1.0284,-1.0891 0.56562,-0.34958 1.02841,-0.1455 1.02841,0.4535 0,0.59901 -0.46279,1.0891 -1.02841,1.0891 -0.56562,0 -1.0284,-0.20407 -1.0284,-0.4535 z m -189.22661,-2.7236 c -2.21495,-1.81172 -2.25848,-1.95022 -0.31437,-1.00001 1.24115,0.60662 2.5411,1.56326 2.8888,2.12584 0.92822,1.50188 0.30483,1.22926 -2.57443,-1.12583 z m -5.14203,-2.99333 c -0.92689,-0.599 -1.05373,-1.0032 -0.3178,-1.01266 0.67365,-0.008 1.51083,0.44704 1.86041,1.01266 0.7891,1.2768 0.43308,1.2768 -1.54261,0 z m 479.2734,-1.76892 c 0.02,-1.00678 0.62508,-2.89098 1.34455,-4.18713 1.2696,-2.287266 1.35907,-2.300327 3.03941,-0.443582 1.63984,1.812022 1.56883,2.033182 -1.34456,4.187132 -2.77711,2.05321 -3.07231,2.09629 -3.0394,0.44358 z M 375.62384,94.709387 c -2.76521,-2.886261 -2.8162,-3.085216 -0.79072,-3.085216 1.19081,0 2.85086,-0.263149 3.68899,-0.584772 1.17079,-0.44927 1.52388,0.265575 1.52388,3.085216 0,2.018493 -0.32993,3.669988 -0.73316,3.669988 -0.40324,0 -2.06328,-1.388347 -3.68899,-3.085216 z m 292.11108,0.07106 c -0.32543,-0.526544 -0.12134,-1.248032 0.45351,-1.603305 0.57484,-0.355273 1.04517,0.07549 1.04517,0.957343 0,1.806425 -0.6171,2.072401 -1.49868,0.645962 z m 224.14847,-0.07106 c 0.34957,-0.565623 1.32976,-1.028405 2.17819,-1.028405 0.84844,0 1.2566,0.462782 0.90702,1.028405 -0.34957,0.565623 -1.32975,1.028405 -2.17819,1.028405 -0.84843,0 -1.2566,-0.462782 -0.90702,-1.028405 z M 558.90163,94.006503 c -0.27421,-0.461847 -0.82401,-2.80655 -1.22178,-5.210447 -0.66364,-4.010586 -0.54112,-4.370724 1.48699,-4.370724 2.05065,0 2.15904,0.352661 1.50123,4.884926 -0.77258,5.323058 -1.0137,5.964114 -1.76644,4.696245 z m 178.20674,-9.581171 c -1.45136,-3.50388 -1.42317,-3.579118 1.69989,-4.537685 2.07769,-0.637714 2.16243,-0.450503 1.37543,3.038928 -1.12616,4.993238 -1.5436,5.196677 -3.07532,1.498757 z m -300.2944,-9.084245 c 0,-2.356766 0.48375,-4.285026 1.075,-4.285026 0.68058,0 0.81919,1.414994 0.37778,3.856521 -0.96485,5.336797 -1.45278,5.480712 -1.45278,0.428505 z m 473.06651,1.431901 c 0,-0.881817 0.46279,-1.603305 1.02841,-1.603305 0.56562,0 1.0284,0.435468 1.0284,0.967709 0,0.532241 -0.46278,1.253729 -1.0284,1.603305 -0.56562,0.349575 -1.02841,-0.08587 -1.02841,-0.967709 z M 547.42121,69.425514 c -1.45846,-1.066446 -1.69263,-1.76966 -0.86495,-2.597341 0.82767,-0.827671 1.46174,-0.524353 2.34195,1.120345 1.532,2.862556 1.06142,3.333134 -1.477,1.476996 z M 648.07618,52.545481 c 0.0718,-4.912407 0.2018,-5.141342 2.92056,-5.142028 l 2.84543,-7.18e-4 -2.60566,5.142028 c -1.43312,2.828115 -2.74737,5.142027 -2.92056,5.142027 -0.17319,0 -0.28109,-2.313589 -0.23977,-5.141309 z m 257.41047,1.095651 c -0.3056,-1.168626 -0.16349,-2.124775 0.31579,-2.124775 1.47373,0 2.31112,2.178283 1.24662,3.242788 -0.65674,0.656746 -1.19994,0.268051 -1.56241,-1.118013 z M 575.64871,43.86401 c 0,-1.843274 1.69913,-2.974152 3.13515,-2.086641 0.73716,0.455593 0.69732,1.125551 -0.12593,2.117504 -1.55387,1.872301 -3.00922,1.857374 -3.00922,-0.03086 z m 188.1982,-1.477379 c 0,-1.486411 2.9143,-3.438158 4.06858,-2.724779 2.07991,1.285463 1.11307,3.627262 -1.49757,3.627262 -1.41406,0 -2.57101,-0.406118 -2.57101,-0.902483 z m -84.7279,-4.15823 c 2.08174,-3.524096 2.9805,-3.904825 3.85265,-1.632033 0.38629,1.006666 -0.49675,2.095882 -2.56716,3.166532 l -3.15601,1.632034 1.87052,-3.166533 z m 220.55861,-0.509817 c -0.0446,-1.08411 0.19841,-1.691512 0.54014,-1.349783 0.34173,0.341731 0.37826,1.228731 0.0811,1.971111 -0.32829,0.820393 -0.57198,0.576705 -0.62132,-0.621328 z M 462.52411,34.094158 c 0,-0.599004 0.46278,-1.089099 1.0284,-1.089099 0.56562,0 1.02841,0.204079 1.02841,0.453509 0,0.249431 -0.46279,0.739525 -1.02841,1.089099 -0.56562,0.349575 -1.0284,0.145495 -1.0284,-0.453509 z M 688.77331,5.8130073 c 0,-0.8818155 0.46278,-1.6033016 1.0284,-1.6033016 0.56563,0 1.02841,0.4354701 1.02841,0.9677121 0,0.532242 -0.46278,1.2537271 -1.02841,1.6033016 -0.56562,0.3495746 -1.0284,-0.085892 -1.0284,-0.9677121 z"
     id="path2987"
     inkscape:connector-curvature="0" />
</svg>
